<?xml version="1.0" encoding="UTF-8" standalone="no"?>
<!DOCTYPE svg PUBLIC "-//W3C//DTD SVG 1.1//EN" "http://www.w3.org/Graphics/SVG/1.1/DTD/svg11.dtd">
<svg width="100%" height="100%" viewBox="0 0 2274 726" version="1.1" xmlns="http://www.w3.org/2000/svg" xmlns:xlink="http://www.w3.org/1999/xlink" xml:space="preserve" xmlns:serif="http://www.serif.com/" style="fill-rule:evenodd;clip-rule:evenodd;stroke-linejoin:round;stroke-miterlimit:2;">
    <g transform="matrix(1,0,0,1,171,-79.9999)">
        <path id="Obdélník-31" serif:id="Obdélník 31" d="M-141,206L2073,80C2089.57,80 2103,93.431 2103,110L2103,776C2103,792.569 2089.57,806 2073,806L-141,806C-157.568,806 -171,792.569 -171,776L-171,236C-171,219.431 -157.568,206 -141,206Z" style="fill:rgb(149,0,81);"/>
        <clipPath id="_clip1">
            <path id="Obdélník-311" serif:id="Obdélník 31" d="M-141,206L2073,80C2089.57,80 2103,93.431 2103,110L2103,776C2103,792.569 2089.57,806 2073,806L-141,806C-157.568,806 -171,792.569 -171,776L-171,236C-171,219.431 -157.568,206 -141,206Z"/>
        </clipPath>
        <g clip-path="url(#_clip1)">
            <path id="Obdélník-40" serif:id="Obdélník 40" d="M261.636,1001.57C261.636,1001.57 204.089,798.813 402,806C563.275,811.856 580.39,799.829 675,742C1214.58,412.188 2095.76,-154.523 2095.76,-154.523L2326.58,211.669L492.455,1367.76L261.636,1001.57Z" style="fill:white;"/>
        </g>
    </g>
</svg>
