<?xml version="1.0" encoding="UTF-8" standalone="no"?>
<!DOCTYPE svg PUBLIC "-//W3C//DTD SVG 1.1//EN" "http://www.w3.org/Graphics/SVG/1.1/DTD/svg11.dtd">
<svg width="100%" height="100%" viewBox="0 0 47 48" version="1.1" xmlns="http://www.w3.org/2000/svg" xmlns:xlink="http://www.w3.org/1999/xlink" xml:space="preserve" xmlns:serif="http://www.serif.com/" style="fill-rule:evenodd;clip-rule:evenodd;stroke-linejoin:round;stroke-miterlimit:2;">
    <g transform="matrix(1,0,0,1,-436,-3120)">
        <path id="Elipsa-3" serif:id="Elipsa 3" d="M459.5,3120C472.479,3120 483,3130.52 483,3143.5C483,3156.48 472.479,3167 459.5,3167C446.521,3167 436,3156.48 436,3143.5C436,3130.52 446.521,3120 459.5,3120Z" style="fill:url(#_Linear1);"/>
        <path id="LinkedIn" d="M456.19,3139.78C456.352,3139.79 456.48,3139.91 456.48,3140.07L456.48,3151.71C456.48,3151.87 456.35,3152 456.19,3152L452.576,3152C452.416,3152 452.286,3151.87 452.286,3151.71L452.286,3140.07C452.286,3139.91 452.414,3139.79 452.576,3139.78L456.19,3139.78ZM461.916,3139.78C462.078,3139.79 462.206,3139.91 462.206,3140.07L462.206,3140.83C462.857,3140.12 463.93,3139.49 465.381,3139.49C469.451,3139.49 470,3142.44 470,3145.33L470,3151.71C470,3151.87 469.87,3152 469.71,3152L466.103,3152C465.942,3152 465.812,3151.87 465.812,3151.71L465.812,3146.05C465.812,3144.47 465.696,3143.26 464.226,3143.26C462.877,3143.26 462.351,3144.01 462.351,3145.95L462.351,3151.71C462.351,3151.87 462.221,3152 462.061,3152L458.455,3152C458.295,3152 458.165,3151.87 458.165,3151.71L458.165,3140.07C458.165,3139.91 458.293,3139.79 458.455,3139.78L461.916,3139.78ZM454.384,3134C453.07,3134 452,3135.07 452,3136.39C452,3137.7 453.07,3138.78 454.384,3138.78C455.698,3138.78 456.767,3137.7 456.767,3136.39C456.767,3135.07 455.698,3134 454.384,3134Z" style="fill:white;"/>
    </g>
    <defs>
        <linearGradient id="_Linear1" x1="0" y1="0" x2="1" y2="0" gradientUnits="userSpaceOnUse" gradientTransform="matrix(-31.3334,-47.0002,47.0002,-31.3334,475.167,3167)"><stop offset="0" style="stop-color:rgb(159,0,91);stop-opacity:1"/><stop offset="0.5" style="stop-color:rgb(219,107,37);stop-opacity:1"/><stop offset="1" style="stop-color:rgb(251,181,59);stop-opacity:1"/></linearGradient>
    </defs>
</svg>
