<?xml version="1.0" encoding="UTF-8" standalone="no"?>
<!DOCTYPE svg PUBLIC "-//W3C//DTD SVG 1.1//EN" "http://www.w3.org/Graphics/SVG/1.1/DTD/svg11.dtd">
<svg width="100%" height="100%" viewBox="0 0 2274 347" version="1.1" xmlns="http://www.w3.org/2000/svg" xmlns:xlink="http://www.w3.org/1999/xlink" xml:space="preserve" xmlns:serif="http://www.serif.com/" style="fill-rule:evenodd;clip-rule:evenodd;stroke-linejoin:round;stroke-miterlimit:2;">
    <g transform="matrix(1,0,0,1,171,-79.9997)">
        <path id="Obdélník-31" serif:id="Obdélník 31" d="M-141,206L2073,80C2089.57,80 2103,93.431 2103,110L2103,396C2103,412.568 2089.57,426 2073,426L-141,426C-157.568,426 -171,412.568 -171,396L-171,236C-171,219.431 -157.568,206 -141,206Z" style="fill:rgb(252,181,58);"/>
        <clipPath id="_clip1">
            <path id="Obdélník-311" serif:id="Obdélník 31" d="M-141,206L2073,80C2089.57,80 2103,93.431 2103,110L2103,396C2103,412.568 2089.57,426 2073,426L-141,426C-157.568,426 -171,412.568 -171,396L-171,236C-171,219.431 -157.568,206 -141,206Z"/>
        </clipPath>
        <g clip-path="url(#_clip1)">
            <path id="Obdélník-40" serif:id="Obdélník 40" d="M634.36,663.194C634.36,663.194 534.9,477.378 729.791,442.195C888.605,413.525 902.761,398.124 982.863,321.449C1439.7,-115.841 2179.75,-857.429 2179.75,-857.429L2410.36,-548.883L864.961,971.74L634.36,663.194Z" style="fill:white;"/>
        </g>
    </g>
</svg>
