<?xml version="1.0" encoding="UTF-8" standalone="no"?>
<!DOCTYPE svg PUBLIC "-//W3C//DTD SVG 1.1//EN" "http://www.w3.org/Graphics/SVG/1.1/DTD/svg11.dtd">
<svg width="100%" height="100%" viewBox="0 0 1598 1012" version="1.1" xmlns="http://www.w3.org/2000/svg" xmlns:xlink="http://www.w3.org/1999/xlink" xml:space="preserve" xmlns:serif="http://www.serif.com/" style="fill-rule:evenodd;clip-rule:evenodd;stroke-linejoin:round;stroke-miterlimit:2;">
    <g transform="matrix(1,0,0,1,-161.033,-2505)">
        <g id="GRAFIKA-POD-TEAMEM" serif:id="GRAFIKA POD TEAMEM">
            <path id="Tvar-1" serif:id="Tvar 1" d="M413.268,2903L400.725,2903C399.134,2903 397.663,2903.83 396.867,2905.18L390.596,2915.82C389.8,2917.17 389.8,2918.83 390.596,2920.18L396.867,2930.82C397.663,2932.17 399.134,2933 400.725,2933L413.268,2933C414.859,2933 416.33,2932.17 417.126,2930.82L423.397,2920.18C424.193,2918.83 424.193,2917.17 423.397,2915.82L417.126,2905.18C416.33,2903.83 414.859,2903 413.268,2903Z" style="fill:rgb(252,181,58);fill-rule:nonzero;"/>
            <path id="Tvar-11" serif:id="Tvar 1" d="M246.268,3131L233.725,3131C232.134,3131 230.663,3131.83 229.867,3133.18L223.596,3143.82C222.8,3145.17 222.8,3146.83 223.596,3148.18L229.867,3158.82C230.663,3160.17 232.134,3161 233.725,3161L246.268,3161C247.859,3161 249.33,3160.17 250.126,3158.82L256.397,3148.18C257.193,3146.83 257.193,3145.17 256.397,3143.82L250.126,3133.18C249.33,3131.83 247.859,3131 246.268,3131Z" style="fill:rgb(209,84,31);fill-rule:nonzero;"/>
            <path id="Tvar-12" serif:id="Tvar 1" d="M229.268,2505L216.725,2505C215.133,2505 213.663,2505.83 212.867,2507.18L206.596,2517.82C205.8,2519.17 205.8,2520.83 206.596,2522.18L212.867,2532.82C213.663,2534.17 215.133,2535 216.725,2535L229.268,2535C230.859,2535 232.33,2534.17 233.126,2532.82L239.397,2522.18C240.193,2520.83 240.193,2519.17 239.397,2517.82L233.126,2507.18C232.33,2505.83 230.859,2505 229.268,2505Z" style="fill:rgb(164,0,93);fill-rule:nonzero;"/>
            <path id="Tvar-13" serif:id="Tvar 1" d="M843.577,2670L838.407,2670C837.751,2670 837.145,2670.33 836.817,2670.87L834.233,2675.13C833.905,2675.67 833.905,2676.33 834.233,2676.87L836.817,2681.13C837.145,2681.67 837.751,2682 838.407,2682L843.577,2682C844.233,2682 844.839,2681.67 845.167,2681.13L847.752,2676.87C848.08,2676.33 848.08,2675.67 847.752,2675.13L845.167,2670.87C844.839,2670.33 844.233,2670 843.577,2670Z" style="fill:rgb(164,0,93);fill-rule:nonzero;"/>
            <path id="Tvar-14" serif:id="Tvar 1" d="M1236.27,3314L1223.73,3314C1222.13,3314 1220.66,3314.83 1219.87,3316.18L1213.6,3326.82C1212.8,3328.17 1212.8,3329.83 1213.6,3331.18L1219.87,3341.82C1220.66,3343.17 1222.13,3344 1223.73,3344L1236.27,3344C1237.86,3344 1239.33,3343.17 1240.13,3341.82L1246.4,3331.18C1247.19,3329.83 1247.19,3328.17 1246.4,3326.82L1240.13,3316.18C1239.33,3314.83 1237.86,3314 1236.27,3314Z" style="fill:rgb(252,181,58);fill-rule:nonzero;"/>
            <path id="Tvar-15" serif:id="Tvar 1" d="M1632.58,3057L1627.41,3057C1626.75,3057 1626.14,3057.33 1625.82,3057.87L1623.23,3062.13C1622.9,3062.67 1622.9,3063.33 1623.23,3063.87L1625.82,3068.13C1626.14,3068.67 1626.75,3069 1627.41,3069L1632.58,3069C1633.23,3069 1633.84,3068.67 1634.17,3068.13L1636.75,3063.87C1637.08,3063.33 1637.08,3062.67 1636.75,3062.13L1634.17,3057.87C1633.84,3057.33 1633.23,3057 1632.58,3057Z" style="fill:rgb(164,0,93);fill-rule:nonzero;"/>
            <path id="Tvar-16" serif:id="Tvar 1" d="M1652.58,2535L1647.41,2535C1646.75,2535 1646.14,2535.33 1645.82,2535.87L1643.23,2540.13C1642.9,2540.67 1642.9,2541.33 1643.23,2541.87L1645.82,2546.13C1646.14,2546.67 1646.75,2547 1647.41,2547L1652.58,2547C1653.23,2547 1653.84,2546.67 1654.17,2546.13L1656.75,2541.87C1657.08,2541.33 1657.08,2540.67 1656.75,2540.13L1654.17,2535.87C1653.84,2535.33 1653.23,2535 1652.58,2535Z" style="fill:rgb(252,181,58);fill-rule:nonzero;"/>
            <path id="Tvar-17" serif:id="Tvar 1" d="M1568.76,3021L1581.31,3021C1582.9,3021 1584.37,3020.17 1585.16,3018.82L1591.43,3008.18C1592.23,3006.83 1592.23,3005.17 1591.43,3003.82L1585.16,2993.18C1584.37,2991.83 1582.9,2991 1581.31,2991L1568.76,2991C1567.17,2991 1565.7,2991.83 1564.9,2993.18L1558.63,3003.82C1557.84,3005.17 1557.84,3006.83 1558.63,3008.18L1564.9,3018.82C1565.7,3020.17 1567.17,3021 1568.76,3021Z" style="fill:rgb(252,181,58);fill-rule:nonzero;"/>
            <path id="Tvar-18" serif:id="Tvar 1" d="M1735.76,2793L1748.31,2793C1749.9,2793 1751.37,2792.17 1752.16,2790.82L1758.43,2780.18C1759.23,2778.83 1759.23,2777.17 1758.43,2775.82L1752.16,2765.18C1751.37,2763.83 1749.9,2763 1748.31,2763L1735.76,2763C1734.17,2763 1732.7,2763.83 1731.9,2765.18L1725.63,2775.82C1724.84,2777.17 1724.84,2778.83 1725.63,2780.18L1731.9,2790.82C1732.7,2792.17 1734.17,2793 1735.76,2793Z" style="fill:rgb(164,0,93);fill-rule:nonzero;"/>
            <path id="Tvar-19" serif:id="Tvar 1" d="M1573.76,3358L1586.31,3358C1587.9,3358 1589.37,3357.17 1590.16,3355.82L1596.43,3345.18C1597.23,3343.83 1597.23,3342.17 1596.43,3340.82L1590.16,3330.18C1589.37,3328.83 1587.9,3328 1586.31,3328L1573.76,3328C1572.17,3328 1570.7,3328.83 1569.9,3330.18L1563.63,3340.82C1562.84,3342.17 1562.84,3343.83 1563.63,3345.18L1569.9,3355.82C1570.7,3357.17 1572.17,3358 1573.76,3358Z" style="fill:rgb(209,84,31);fill-rule:nonzero;"/>
            <path id="Tvar-110" serif:id="Tvar 1" d="M1452.45,2670L1457.62,2670C1458.28,2670 1458.89,2669.67 1459.21,2669.13L1461.8,2664.87C1462.13,2664.33 1462.13,2663.67 1461.8,2663.13L1459.21,2658.87C1458.89,2658.33 1458.28,2658 1457.62,2658L1452.45,2658C1451.8,2658 1451.19,2658.33 1450.86,2658.87L1448.28,2663.13C1447.95,2663.67 1447.95,2664.33 1448.28,2664.87L1450.86,2669.13C1451.19,2669.67 1451.8,2670 1452.45,2670Z" style="fill:rgb(209,84,31);fill-rule:nonzero;"/>
            <path id="Tvar-111" serif:id="Tvar 1" d="M744.764,2658L757.306,2658C758.898,2658 760.368,2657.17 761.164,2655.82L767.435,2645.18C768.231,2643.83 768.231,2642.17 767.435,2640.82L761.164,2630.18C760.368,2628.83 758.898,2628 757.306,2628L744.764,2628C743.172,2628 741.701,2628.83 740.905,2630.18L734.634,2640.82C733.838,2642.17 733.838,2643.83 734.634,2645.18L740.905,2655.82C741.701,2657.17 743.172,2658 744.764,2658Z" style="fill:rgb(252,181,58);fill-rule:nonzero;"/>
            <path id="Tvar-112" serif:id="Tvar 1" d="M165.454,2827L170.624,2827C171.28,2827 171.886,2826.67 172.214,2826.13L174.799,2821.87C175.127,2821.33 175.127,2820.67 174.799,2820.13L172.214,2815.87C171.886,2815.33 171.28,2815 170.624,2815L165.454,2815C164.798,2815 164.192,2815.33 163.864,2815.87L161.28,2820.13C160.952,2820.67 160.952,2821.33 161.28,2821.87L163.864,2826.13C164.192,2826.67 164.798,2827 165.454,2827Z" style="fill:rgb(164,0,93);fill-rule:nonzero;"/>
            <path id="Tvar-113" serif:id="Tvar 1" d="M165.454,3516L170.624,3516C171.28,3516 171.886,3515.67 172.214,3515.13L174.798,3510.87C175.126,3510.33 175.126,3509.67 174.798,3509.13L172.214,3504.87C171.886,3504.33 171.28,3504 170.624,3504L165.454,3504C164.798,3504 164.192,3504.33 163.864,3504.87L161.28,3509.13C160.951,3509.67 160.951,3510.33 161.28,3510.87L163.864,3515.13C164.192,3515.67 164.798,3516 165.454,3516Z" style="fill:rgb(252,181,58);fill-rule:nonzero;"/>
        </g>
    </g>
</svg>
