<?xml version="1.0" encoding="UTF-8" standalone="no"?>
<!DOCTYPE svg PUBLIC "-//W3C//DTD SVG 1.1//EN" "http://www.w3.org/Graphics/SVG/1.1/DTD/svg11.dtd">
<svg width="100%" height="100%" viewBox="0 0 2917 2094" version="1.1" xmlns="http://www.w3.org/2000/svg" xmlns:xlink="http://www.w3.org/1999/xlink" xml:space="preserve" xmlns:serif="http://www.serif.com/" style="fill-rule:evenodd;clip-rule:evenodd;stroke-linejoin:round;stroke-miterlimit:2;">
    <g transform="matrix(1,0,0,1,580.006,-1144.99)">
        <g id="GRAFIKA-na-pozadi" serif:id="GRAFIKA na pozadi">
            <path id="Tvar-1" serif:id="Tvar 1" d="M-197.9,2213.01L248.885,2213.01C305.588,2213.01 357.984,2183.4 386.335,2135.34L609.728,1756.66C638.079,1708.61 638.079,1649.39 609.728,1601.33L386.335,1222.66C357.984,1174.6 305.588,1144.99 248.885,1144.99L-197.9,1144.99C-254.603,1144.99 -306.999,1174.6 -335.35,1222.66L-558.743,1601.33C-587.094,1649.39 -587.094,1708.61 -558.743,1756.66L-335.35,2135.34C-306.999,2183.4 -254.603,2213.01 -197.9,2213.01Z" style="fill:rgb(241,241,241);fill-rule:nonzero;"/>
            <path id="Tvar-11" serif:id="Tvar 1" d="M1873.29,2416L2122.7,2416C2154.35,2416 2183.6,2399.48 2199.42,2372.66L2324.13,2161.34C2339.95,2134.52 2339.95,2101.48 2324.13,2074.66L2199.42,1863.34C2183.6,1836.52 2154.35,1820 2122.7,1820L1873.29,1820C1841.64,1820 1812.39,1836.52 1796.57,1863.34L1671.87,2074.66C1656.04,2101.48 1656.04,2134.52 1671.87,2161.34L1796.57,2372.66C1812.39,2399.48 1841.64,2416 1873.29,2416Z" style="fill:rgb(252,181,58);fill-rule:nonzero;"/>
            <path id="Tvar-12" serif:id="Tvar 1" d="M1671.68,3238L1740.31,3238C1749.02,3238 1757.06,3233.45 1761.42,3226.08L1795.73,3167.93C1800.09,3160.55 1800.09,3151.45 1795.73,3144.07L1761.42,3085.93C1757.06,3078.55 1749.02,3074 1740.31,3074L1671.68,3074C1662.97,3074 1654.92,3078.55 1650.57,3085.93L1616.25,3144.07C1611.9,3151.45 1611.9,3160.55 1616.25,3167.93L1650.57,3226.08C1654.92,3233.45 1662.97,3238 1671.68,3238Z" style="fill:rgb(164,0,93);fill-rule:nonzero;"/>
        </g>
    </g>
</svg>
