<?xml version="1.0" encoding="UTF-8" standalone="no"?>
<!DOCTYPE svg PUBLIC "-//W3C//DTD SVG 1.1//EN" "http://www.w3.org/Graphics/SVG/1.1/DTD/svg11.dtd">
<svg width="100%" height="100%" viewBox="0 0 52 52" version="1.1" xmlns="http://www.w3.org/2000/svg" xmlns:xlink="http://www.w3.org/1999/xlink" xml:space="preserve" xmlns:serif="http://www.serif.com/" style="fill-rule:evenodd;clip-rule:evenodd;stroke-linejoin:round;stroke-miterlimit:2;">
    <g transform="matrix(1,0,0,1,-1050,-1903)">
        <g id="iko">
            <path id="video_reklama" d="M1075.16,1939.9L1075.16,1942.38C1075.16,1943.79 1074.02,1944.93 1072.61,1944.93C1071.85,1944.93 1071.13,1944.6 1070.65,1944.02L1067.22,1939.9L1052.52,1939.9C1051,1939.77 1050,1938.69 1050,1937.39L1050,1905.52C1050,1904.21 1051,1903.13 1052.52,1903L1086.06,1903C1087.58,1903.13 1088.58,1904.21 1088.58,1905.52L1088.58,1916.42L1097.81,1916.42C1100.92,1917.36 1102,1918.86 1102,1920.61L1102,1950.81C1102,1952.56 1100.92,1954.06 1097.81,1955L1082.71,1955C1080.4,1955 1078.52,1953.12 1078.52,1950.81L1078.52,1939.9L1075.16,1939.9ZM1097.81,1918.1L1082.71,1918.1C1080.65,1918.94 1080.19,1919.73 1080.19,1920.61L1080.19,1950.81C1080.19,1952.19 1081.32,1953.32 1082.71,1953.32L1097.81,1953.32C1099.32,1953.19 1100.32,1952.11 1100.32,1950.81L1100.32,1920.61C1100.32,1919.73 1099.86,1918.94 1097.81,1918.1ZM1092.77,1951.64L1087.74,1951.64L1087.74,1949.97L1092.77,1949.97L1092.77,1951.64ZM1096.97,1948.29L1083.55,1948.29C1082.62,1948.29 1081.87,1947.54 1081.87,1946.61L1081.87,1924.81C1081.87,1923.95 1082.51,1923.25 1083.55,1923.13L1096.97,1923.13C1098.01,1923.25 1098.64,1923.95 1098.64,1924.81L1098.64,1946.61C1098.64,1947.11 1098.42,1947.56 1096.97,1948.29ZM1096.97,1924.81L1083.55,1924.81L1083.55,1946.61L1096.97,1946.61L1096.97,1924.81ZM1091.93,1944.93L1085.23,1944.93L1085.23,1943.26L1091.93,1943.26L1091.93,1944.93ZM1095.29,1944.93L1093.61,1944.93L1093.61,1943.26L1095.29,1943.26L1095.29,1944.93ZM1086.9,1911.39L1051.68,1911.39L1051.68,1937.39L1052.52,1938.23L1068.01,1938.23L1071.94,1942.94C1072.1,1943.14 1072.35,1943.26 1072.61,1943.26C1073.09,1943.26 1073.48,1942.87 1073.48,1942.38L1073.48,1938.23L1078.52,1938.23L1078.52,1934.87L1058.39,1934.87L1058.39,1936.55L1056.71,1936.55L1056.71,1934.87L1053.36,1934.87L1053.36,1933.19L1056.71,1933.19L1056.71,1931.52L1058.39,1931.52L1058.39,1933.19L1078.52,1933.19L1078.52,1929.84L1055.87,1929.84C1054.35,1929.7 1053.36,1928.63 1053.36,1927.32L1053.36,1915.58C1053.36,1914.28 1054.35,1913.2 1055.87,1913.06L1082.71,1913.06C1084.23,1913.2 1085.23,1914.28 1085.23,1915.58L1085.23,1916.42L1086.9,1916.42L1086.9,1911.39ZM1095.29,1941.58L1085.23,1941.58L1085.23,1939.9L1095.29,1939.9L1095.29,1941.58ZM1095.29,1938.23L1085.23,1938.23L1085.23,1936.55L1095.29,1936.55L1095.29,1938.23ZM1095.29,1934.87L1085.23,1934.87L1085.23,1926.48L1095.29,1926.48L1095.29,1934.87ZM1093.61,1928.16L1086.9,1928.16L1086.9,1933.19L1093.61,1933.19L1093.61,1928.16ZM1082.71,1914.74L1055.87,1914.74L1055.03,1915.58L1055.03,1927.32C1055.03,1927.79 1055.41,1928.16 1055.87,1928.16L1078.52,1928.16L1078.52,1920.61C1078.52,1918.38 1080.27,1916.55 1082.71,1916.42L1083.55,1916.42L1083.55,1915.58L1082.71,1914.74ZM1064.26,1927L1075.36,1921.45L1064.26,1915.9L1064.26,1927ZM1058.39,1926.48L1056.71,1926.48L1056.71,1924.81L1058.39,1924.81L1058.39,1926.48ZM1065.93,1918.62L1071.61,1921.45L1065.93,1924.29L1065.93,1918.62ZM1058.39,1923.13L1056.71,1923.13L1056.71,1921.45L1058.39,1921.45L1058.39,1923.13ZM1094.45,1921.45L1089.42,1921.45L1089.42,1919.77L1094.45,1919.77L1094.45,1921.45ZM1087.74,1921.45L1086.06,1921.45L1086.06,1919.77L1087.74,1919.77L1087.74,1921.45ZM1058.39,1919.77L1056.71,1919.77L1056.71,1918.1L1058.39,1918.1L1058.39,1919.77ZM1086.06,1904.68L1052.52,1904.68L1051.68,1905.52L1051.68,1909.71L1086.9,1909.71L1086.9,1905.52L1086.06,1904.68ZM1061.74,1908.03L1060.07,1908.03L1060.07,1906.36L1061.74,1906.36L1061.74,1908.03ZM1055.03,1908.03L1053.36,1908.03L1053.36,1906.36L1055.03,1906.36L1055.03,1908.03ZM1058.39,1908.03L1056.71,1908.03L1056.71,1906.36L1058.39,1906.36L1058.39,1908.03Z" style="fill:rgb(252,181,58);"/>
            <clipPath id="_clip1">
                <path id="video_reklama1" serif:id="video_reklama" d="M1075.16,1939.9L1075.16,1942.38C1075.16,1943.79 1074.02,1944.93 1072.61,1944.93C1071.85,1944.93 1071.13,1944.6 1070.65,1944.02L1067.22,1939.9L1052.52,1939.9C1051,1939.77 1050,1938.69 1050,1937.39L1050,1905.52C1050,1904.21 1051,1903.13 1052.52,1903L1086.06,1903C1087.58,1903.13 1088.58,1904.21 1088.58,1905.52L1088.58,1916.42L1097.81,1916.42C1100.92,1917.36 1102,1918.86 1102,1920.61L1102,1950.81C1102,1952.56 1100.92,1954.06 1097.81,1955L1082.71,1955C1080.4,1955 1078.52,1953.12 1078.52,1950.81L1078.52,1939.9L1075.16,1939.9ZM1097.81,1918.1L1082.71,1918.1C1080.65,1918.94 1080.19,1919.73 1080.19,1920.61L1080.19,1950.81C1080.19,1952.19 1081.32,1953.32 1082.71,1953.32L1097.81,1953.32C1099.32,1953.19 1100.32,1952.11 1100.32,1950.81L1100.32,1920.61C1100.32,1919.73 1099.86,1918.94 1097.81,1918.1ZM1092.77,1951.64L1087.74,1951.64L1087.74,1949.97L1092.77,1949.97L1092.77,1951.64ZM1096.97,1948.29L1083.55,1948.29C1082.62,1948.29 1081.87,1947.54 1081.87,1946.61L1081.87,1924.81C1081.87,1923.95 1082.51,1923.25 1083.55,1923.13L1096.97,1923.13C1098.01,1923.25 1098.64,1923.95 1098.64,1924.81L1098.64,1946.61C1098.64,1947.11 1098.42,1947.56 1096.97,1948.29ZM1096.97,1924.81L1083.55,1924.81L1083.55,1946.61L1096.97,1946.61L1096.97,1924.81ZM1091.93,1944.93L1085.23,1944.93L1085.23,1943.26L1091.93,1943.26L1091.93,1944.93ZM1095.29,1944.93L1093.61,1944.93L1093.61,1943.26L1095.29,1943.26L1095.29,1944.93ZM1086.9,1911.39L1051.68,1911.39L1051.68,1937.39L1052.52,1938.23L1068.01,1938.23L1071.94,1942.94C1072.1,1943.14 1072.35,1943.26 1072.61,1943.26C1073.09,1943.26 1073.48,1942.87 1073.48,1942.38L1073.48,1938.23L1078.52,1938.23L1078.52,1934.87L1058.39,1934.87L1058.39,1936.55L1056.71,1936.55L1056.71,1934.87L1053.36,1934.87L1053.36,1933.19L1056.71,1933.19L1056.71,1931.52L1058.39,1931.52L1058.39,1933.19L1078.52,1933.19L1078.52,1929.84L1055.87,1929.84C1054.35,1929.7 1053.36,1928.63 1053.36,1927.32L1053.36,1915.58C1053.36,1914.28 1054.35,1913.2 1055.87,1913.06L1082.71,1913.06C1084.23,1913.2 1085.23,1914.28 1085.23,1915.58L1085.23,1916.42L1086.9,1916.42L1086.9,1911.39ZM1095.29,1941.58L1085.23,1941.58L1085.23,1939.9L1095.29,1939.9L1095.29,1941.58ZM1095.29,1938.23L1085.23,1938.23L1085.23,1936.55L1095.29,1936.55L1095.29,1938.23ZM1095.29,1934.87L1085.23,1934.87L1085.23,1926.48L1095.29,1926.48L1095.29,1934.87ZM1093.61,1928.16L1086.9,1928.16L1086.9,1933.19L1093.61,1933.19L1093.61,1928.16ZM1082.71,1914.74L1055.87,1914.74L1055.03,1915.58L1055.03,1927.32C1055.03,1927.79 1055.41,1928.16 1055.87,1928.16L1078.52,1928.16L1078.52,1920.61C1078.52,1918.38 1080.27,1916.55 1082.71,1916.42L1083.55,1916.42L1083.55,1915.58L1082.71,1914.74ZM1064.26,1927L1075.36,1921.45L1064.26,1915.9L1064.26,1927ZM1058.39,1926.48L1056.71,1926.48L1056.71,1924.81L1058.39,1924.81L1058.39,1926.48ZM1065.93,1918.62L1071.61,1921.45L1065.93,1924.29L1065.93,1918.62ZM1058.39,1923.13L1056.71,1923.13L1056.71,1921.45L1058.39,1921.45L1058.39,1923.13ZM1094.45,1921.45L1089.42,1921.45L1089.42,1919.77L1094.45,1919.77L1094.45,1921.45ZM1087.74,1921.45L1086.06,1921.45L1086.06,1919.77L1087.74,1919.77L1087.74,1921.45ZM1058.39,1919.77L1056.71,1919.77L1056.71,1918.1L1058.39,1918.1L1058.39,1919.77ZM1086.06,1904.68L1052.52,1904.68L1051.68,1905.52L1051.68,1909.71L1086.9,1909.71L1086.9,1905.52L1086.06,1904.68ZM1061.74,1908.03L1060.07,1908.03L1060.07,1906.36L1061.74,1906.36L1061.74,1908.03ZM1055.03,1908.03L1053.36,1908.03L1053.36,1906.36L1055.03,1906.36L1055.03,1908.03ZM1058.39,1908.03L1056.71,1908.03L1056.71,1906.36L1058.39,1906.36L1058.39,1908.03Z"/>
            </clipPath>
            <g clip-path="url(#_clip1)">
                <rect id="Obdélník-33" serif:id="Obdélník 33" x="1081" y="1922" width="19" height="28" style="fill:rgb(164,0,93);"/>
                <rect id="Obdélník-331" serif:id="Obdélník 33" x="1061" y="1916" width="15" height="12" style="fill:rgb(164,0,93);"/>
            </g>
        </g>
    </g>
</svg>
