<?xml version="1.0" encoding="UTF-8" standalone="no"?>
<!DOCTYPE svg PUBLIC "-//W3C//DTD SVG 1.1//EN" "http://www.w3.org/Graphics/SVG/1.1/DTD/svg11.dtd">
<svg width="100%" height="100%" viewBox="0 0 59 59" version="1.1" xmlns="http://www.w3.org/2000/svg" xmlns:xlink="http://www.w3.org/1999/xlink" xml:space="preserve" xmlns:serif="http://www.serif.com/" style="fill-rule:evenodd;clip-rule:evenodd;stroke-linejoin:round;stroke-miterlimit:2;">
    <g transform="matrix(1,0,0,1,-1273,-2128)">
        <g id="iko">
            <path id="Tvar-1" serif:id="Tvar 1" d="M1286,2174.77C1285.08,2177.29 1283.39,2178.52 1281.42,2178.52C1278.84,2178.52 1276.74,2176.42 1276.74,2173.84L1276.74,2172.3L1274.85,2169.92C1273.65,2168.44 1273,2166.57 1273,2164.66L1273,2164.48C1273,2161.57 1274.49,2159 1276.74,2157.49L1276.74,2146.71L1273,2146.71L1273,2128L1295.45,2128L1295.45,2137.35L1308.55,2137.35L1308.55,2136.64L1311,2135.97C1311.08,2135.75 1311.17,2135.54 1311.27,2135.33L1310.01,2133.11L1313.66,2129.46L1315.88,2130.72C1316.09,2130.63 1316.3,2130.54 1316.52,2130.46L1317.19,2128L1322.36,2128L1323.03,2130.46C1323.25,2130.54 1323.46,2130.63 1323.67,2130.72L1325.88,2129.46L1329.54,2133.12L1328.28,2135.33C1328.38,2135.54 1328.46,2135.76 1328.54,2135.97L1331,2136.64L1331,2141.81L1328.54,2142.48C1328.46,2142.7 1328.37,2142.91 1328.28,2143.12L1329.54,2145.34L1327.26,2147.62L1327.26,2157.93L1328.19,2157.93C1330.12,2158.36 1331,2159.45 1331,2160.74L1331,2168.22C1331,2169.51 1330.12,2170.61 1328.19,2171.03L1327.16,2171.03C1326.37,2173.24 1324.96,2174.43 1322.58,2174.77L1311.62,2174.77L1313.02,2180.39L1316.03,2180.39C1317.96,2180.81 1318.84,2181.9 1318.84,2183.19L1318.84,2186L1285.16,2186L1285.16,2183.19C1285.16,2181.72 1286.31,2180.5 1287.97,2180.39L1290.98,2180.39L1292.38,2174.77L1286,2174.77ZM1316.03,2182.26L1287.97,2182.26C1287.16,2182.66 1287.03,2182.91 1287.03,2183.19L1287.03,2184.13L1316.97,2184.13L1316.97,2183.19C1316.97,2182.91 1316.84,2182.66 1316.03,2182.26ZM1309.69,2174.77L1294.31,2174.77L1292.91,2180.39L1311.09,2180.39L1309.69,2174.77ZM1281.42,2176.64C1279.87,2176.64 1278.61,2175.39 1278.61,2173.84L1278.61,2172.9L1284.23,2172.9L1284.23,2173.84C1284.23,2175.39 1282.97,2176.64 1281.42,2176.64ZM1312.29,2167.29L1289.41,2167.29L1287.99,2169.93L1286.1,2172.3L1286.1,2172.9L1322.58,2172.9L1324.21,2172.38L1325.21,2171.03L1315.1,2171.03C1313.44,2170.92 1312.29,2169.7 1312.29,2168.23L1312.29,2167.29ZM1299.19,2171.03L1297.32,2171.03L1297.32,2169.16L1299.19,2169.16L1299.19,2171.03ZM1306.68,2171.03L1304.81,2171.03L1304.81,2169.16L1306.68,2169.16L1306.68,2171.03ZM1302.93,2171.03L1301.06,2171.03L1301.06,2169.16L1302.93,2169.16L1302.93,2171.03ZM1284.71,2171.03L1286.53,2168.76C1287.46,2167.6 1287.97,2166.14 1287.97,2164.66L1287.97,2164.48C1287.97,2160.87 1285.03,2157.93 1281.42,2157.93C1277.81,2157.93 1274.87,2160.87 1274.87,2164.48L1274.87,2164.66C1274.87,2166.14 1275.38,2167.6 1276.31,2168.76L1278.13,2171.03L1280.48,2171.03L1280.48,2167.12C1279.4,2166.73 1278.61,2165.7 1278.61,2164.48C1278.61,2162.94 1279.87,2161.68 1281.42,2161.68C1282.97,2161.68 1284.23,2162.94 1284.23,2164.48C1284.23,2165.7 1283.44,2166.73 1282.36,2167.12L1282.36,2171.03L1284.71,2171.03ZM1315.1,2159.81C1314.29,2160.21 1314.16,2160.46 1314.16,2160.74L1314.16,2168.22C1314.16,2168.74 1314.58,2169.16 1315.1,2169.16L1328.19,2169.16C1328.82,2169.04 1329.13,2168.67 1329.13,2168.22L1329.13,2160.74C1329.13,2160.3 1328.82,2159.93 1328.19,2159.81L1322.19,2159.81L1318.56,2156.18C1318.34,2155.95 1317.9,2156.14 1317.9,2156.45L1317.9,2159.81L1315.1,2159.81ZM1327.26,2167.29L1325.39,2167.29L1325.39,2165.42L1327.26,2165.42L1327.26,2167.29ZM1323.52,2167.29L1316.03,2167.29L1316.03,2165.42L1323.52,2165.42L1323.52,2167.29ZM1280.48,2164.48C1280.48,2163.97 1280.9,2163.55 1281.42,2163.55C1281.93,2163.55 1282.36,2163.97 1282.36,2164.48C1282.36,2165 1281.93,2165.42 1281.42,2165.42C1280.9,2165.42 1280.48,2165 1280.48,2164.48ZM1311.21,2142.97L1295.45,2142.97L1295.45,2146.71L1282.36,2146.71L1282.36,2156.12C1286.56,2156.59 1289.84,2160.16 1289.84,2164.48L1289.84,2164.66C1289.84,2164.92 1289.83,2165.17 1289.8,2165.42L1312.29,2165.42L1312.29,2160.74C1312.29,2159.26 1313.44,2158.05 1315.1,2157.93L1316.03,2157.93L1316.03,2156.45C1316.03,2155.21 1317.05,2154.19 1318.29,2154.19C1318.88,2154.19 1319.47,2154.43 1319.89,2154.85L1321.64,2156.61L1321.64,2150.45L1317.19,2150.45L1316.52,2147.99C1316.3,2147.91 1316.09,2147.82 1315.88,2147.73L1313.66,2148.99L1310.01,2145.34L1311.27,2143.12L1311.21,2142.97ZM1327.26,2163.55L1316.03,2163.55L1316.03,2161.68L1327.26,2161.68L1327.26,2163.55ZM1302,2144.84C1296.84,2144.84 1292.64,2149.03 1292.64,2154.19C1292.64,2159.35 1296.84,2163.55 1302,2163.55C1307.16,2163.55 1311.36,2159.35 1311.36,2154.19C1311.36,2149.03 1307.16,2144.84 1302,2144.84ZM1302,2161.68C1301.71,2161.68 1301.08,2160.72 1300.63,2158.87L1303.37,2158.87C1302.92,2160.72 1302.29,2161.68 1302,2161.68ZM1304.59,2161.21C1304.88,2160.53 1305.11,2159.73 1305.29,2158.87L1307.83,2158.87C1306.99,2159.92 1305.87,2160.73 1304.59,2161.21ZM1296.17,2158.87L1298.71,2158.87C1298.89,2159.73 1299.12,2160.53 1299.41,2161.21C1298.13,2160.73 1297.01,2159.92 1296.17,2158.87ZM1325.39,2157.93L1325.39,2148.71L1323.67,2147.73C1323.62,2147.75 1323.57,2147.77 1323.52,2147.79L1323.52,2157.93L1325.39,2157.93ZM1303.85,2155.13L1300.15,2155.13L1300.3,2157L1303.7,2157L1303.85,2155.13ZM1298.28,2155.13L1294.58,2155.13L1295.07,2157L1298.41,2157L1298.28,2155.13ZM1309.42,2155.13L1305.72,2155.13L1305.59,2157L1308.93,2157L1309.42,2155.13ZM1278.61,2146.71L1280.48,2146.71L1280.48,2156.12C1279.84,2156.19 1279.21,2156.34 1278.61,2156.56L1278.61,2146.71ZM1303.7,2151.39L1300.3,2151.39L1300.15,2153.26L1303.85,2153.26L1303.7,2151.39ZM1308.93,2151.39L1305.59,2151.39L1305.72,2153.26L1309.42,2153.26L1308.93,2151.39ZM1298.41,2151.39L1295.07,2151.39L1294.58,2153.26L1298.28,2153.26L1298.41,2151.39ZM1298.71,2149.52L1299.41,2147.18C1298.13,2147.65 1297.01,2148.47 1296.17,2149.52L1298.71,2149.52ZM1307.83,2149.52C1306.86,2148.37 1305.79,2147.63 1304.59,2147.18C1304.88,2147.86 1305.11,2148.66 1305.29,2149.52L1307.83,2149.52ZM1303.37,2149.52C1302.86,2147.58 1302.28,2146.71 1302,2146.71C1301.71,2146.71 1301.08,2147.67 1300.63,2149.52L1303.37,2149.52ZM1320.93,2129.87L1318.62,2129.87L1318.06,2131.92L1317.56,2132.07C1317.13,2132.21 1316.7,2132.39 1316.28,2132.61L1315.83,2132.85L1313.98,2131.79L1312.34,2133.43L1313.4,2135.28L1313.16,2135.73C1312.93,2136.15 1312.76,2136.59 1312.62,2137.02L1312.47,2137.51L1310.42,2138.07L1310.42,2140.38L1312.47,2140.95L1312.62,2141.43C1312.76,2141.86 1312.93,2142.3 1313.16,2142.72L1313.4,2143.17L1312.34,2145.02L1313.98,2146.66L1315.83,2145.6L1316.28,2145.84C1316.7,2146.06 1317.13,2146.24 1317.56,2146.38L1318.06,2146.53L1318.62,2148.58L1320.93,2148.58L1321.49,2146.53L1321.98,2146.38C1322.42,2146.24 1322.85,2146.06 1323.26,2145.84L1323.72,2145.6L1325.57,2146.66L1327.21,2145.02L1326.15,2143.17L1326.39,2142.72C1326.61,2142.3 1326.79,2141.86 1326.93,2141.43L1327.08,2140.94L1329.13,2140.38L1329.13,2138.07L1327.08,2137.51L1326.93,2137.02C1326.79,2136.59 1326.61,2136.15 1326.39,2135.73L1326.15,2135.28L1327.21,2133.43L1325.57,2131.79L1323.72,2132.85L1323.26,2132.61C1322.85,2132.39 1322.42,2132.21 1321.98,2132.07L1321.49,2131.92L1320.93,2129.87ZM1291.64,2144.84L1286,2140.74C1285.44,2140.97 1284.84,2141.1 1284.23,2141.1C1283.61,2141.1 1283.01,2140.97 1282.45,2140.74L1276.81,2144.84L1291.64,2144.84ZM1319.77,2133.61C1316.68,2133.61 1314.16,2136.13 1314.16,2139.23C1314.16,2142.32 1316.68,2144.84 1319.77,2144.84C1322.87,2144.84 1325.39,2142.32 1325.39,2139.23C1325.39,2136.13 1322.87,2133.61 1319.77,2133.61ZM1293.58,2143.94L1287.64,2139.62C1287.75,2139.49 1287.87,2139.36 1287.97,2139.23L1293.58,2131.74L1293.58,2143.94ZM1280.48,2139.23C1280.59,2139.36 1280.7,2139.49 1280.81,2139.62L1274.87,2143.94L1274.87,2131.74L1280.48,2139.23ZM1319.77,2142.97C1317.71,2142.97 1316.03,2141.29 1316.03,2139.23C1316.03,2137.16 1317.71,2135.48 1319.77,2135.48C1321.84,2135.48 1323.52,2137.16 1323.52,2139.23C1323.52,2141.29 1321.84,2142.97 1319.77,2142.97ZM1308.55,2139.23L1295.45,2139.23L1295.45,2141.1L1308.55,2141.1L1308.55,2139.23ZM1286.47,2138.1C1285.94,2138.81 1285.1,2139.23 1284.23,2139.23C1283.35,2139.23 1282.51,2138.81 1281.98,2138.1L1275.81,2129.87L1292.64,2129.87L1286.47,2138.1Z" style="fill:rgb(252,181,58);"/>
            <clipPath id="_clip1">
                <path id="Tvar-11" serif:id="Tvar 1" d="M1286,2174.77C1285.08,2177.29 1283.39,2178.52 1281.42,2178.52C1278.84,2178.52 1276.74,2176.42 1276.74,2173.84L1276.74,2172.3L1274.85,2169.92C1273.65,2168.44 1273,2166.57 1273,2164.66L1273,2164.48C1273,2161.57 1274.49,2159 1276.74,2157.49L1276.74,2146.71L1273,2146.71L1273,2128L1295.45,2128L1295.45,2137.35L1308.55,2137.35L1308.55,2136.64L1311,2135.97C1311.08,2135.75 1311.17,2135.54 1311.27,2135.33L1310.01,2133.11L1313.66,2129.46L1315.88,2130.72C1316.09,2130.63 1316.3,2130.54 1316.52,2130.46L1317.19,2128L1322.36,2128L1323.03,2130.46C1323.25,2130.54 1323.46,2130.63 1323.67,2130.72L1325.88,2129.46L1329.54,2133.12L1328.28,2135.33C1328.38,2135.54 1328.46,2135.76 1328.54,2135.97L1331,2136.64L1331,2141.81L1328.54,2142.48C1328.46,2142.7 1328.37,2142.91 1328.28,2143.12L1329.54,2145.34L1327.26,2147.62L1327.26,2157.93L1328.19,2157.93C1330.12,2158.36 1331,2159.45 1331,2160.74L1331,2168.22C1331,2169.51 1330.12,2170.61 1328.19,2171.03L1327.16,2171.03C1326.37,2173.24 1324.96,2174.43 1322.58,2174.77L1311.62,2174.77L1313.02,2180.39L1316.03,2180.39C1317.96,2180.81 1318.84,2181.9 1318.84,2183.19L1318.84,2186L1285.16,2186L1285.16,2183.19C1285.16,2181.72 1286.31,2180.5 1287.97,2180.39L1290.98,2180.39L1292.38,2174.77L1286,2174.77ZM1316.03,2182.26L1287.97,2182.26C1287.16,2182.66 1287.03,2182.91 1287.03,2183.19L1287.03,2184.13L1316.97,2184.13L1316.97,2183.19C1316.97,2182.91 1316.84,2182.66 1316.03,2182.26ZM1309.69,2174.77L1294.31,2174.77L1292.91,2180.39L1311.09,2180.39L1309.69,2174.77ZM1281.42,2176.64C1279.87,2176.64 1278.61,2175.39 1278.61,2173.84L1278.61,2172.9L1284.23,2172.9L1284.23,2173.84C1284.23,2175.39 1282.97,2176.64 1281.42,2176.64ZM1312.29,2167.29L1289.41,2167.29L1287.99,2169.93L1286.1,2172.3L1286.1,2172.9L1322.58,2172.9L1324.21,2172.38L1325.21,2171.03L1315.1,2171.03C1313.44,2170.92 1312.29,2169.7 1312.29,2168.23L1312.29,2167.29ZM1299.19,2171.03L1297.32,2171.03L1297.32,2169.16L1299.19,2169.16L1299.19,2171.03ZM1306.68,2171.03L1304.81,2171.03L1304.81,2169.16L1306.68,2169.16L1306.68,2171.03ZM1302.93,2171.03L1301.06,2171.03L1301.06,2169.16L1302.93,2169.16L1302.93,2171.03ZM1284.71,2171.03L1286.53,2168.76C1287.46,2167.6 1287.97,2166.14 1287.97,2164.66L1287.97,2164.48C1287.97,2160.87 1285.03,2157.93 1281.42,2157.93C1277.81,2157.93 1274.87,2160.87 1274.87,2164.48L1274.87,2164.66C1274.87,2166.14 1275.38,2167.6 1276.31,2168.76L1278.13,2171.03L1280.48,2171.03L1280.48,2167.12C1279.4,2166.73 1278.61,2165.7 1278.61,2164.48C1278.61,2162.94 1279.87,2161.68 1281.42,2161.68C1282.97,2161.68 1284.23,2162.94 1284.23,2164.48C1284.23,2165.7 1283.44,2166.73 1282.36,2167.12L1282.36,2171.03L1284.71,2171.03ZM1315.1,2159.81C1314.29,2160.21 1314.16,2160.46 1314.16,2160.74L1314.16,2168.22C1314.16,2168.74 1314.58,2169.16 1315.1,2169.16L1328.19,2169.16C1328.82,2169.04 1329.13,2168.67 1329.13,2168.22L1329.13,2160.74C1329.13,2160.3 1328.82,2159.93 1328.19,2159.81L1322.19,2159.81L1318.56,2156.18C1318.34,2155.95 1317.9,2156.14 1317.9,2156.45L1317.9,2159.81L1315.1,2159.81ZM1327.26,2167.29L1325.39,2167.29L1325.39,2165.42L1327.26,2165.42L1327.26,2167.29ZM1323.52,2167.29L1316.03,2167.29L1316.03,2165.42L1323.52,2165.42L1323.52,2167.29ZM1280.48,2164.48C1280.48,2163.97 1280.9,2163.55 1281.42,2163.55C1281.93,2163.55 1282.36,2163.97 1282.36,2164.48C1282.36,2165 1281.93,2165.42 1281.42,2165.42C1280.9,2165.42 1280.48,2165 1280.48,2164.48ZM1311.21,2142.97L1295.45,2142.97L1295.45,2146.71L1282.36,2146.71L1282.36,2156.12C1286.56,2156.59 1289.84,2160.16 1289.84,2164.48L1289.84,2164.66C1289.84,2164.92 1289.83,2165.17 1289.8,2165.42L1312.29,2165.42L1312.29,2160.74C1312.29,2159.26 1313.44,2158.05 1315.1,2157.93L1316.03,2157.93L1316.03,2156.45C1316.03,2155.21 1317.05,2154.19 1318.29,2154.19C1318.88,2154.19 1319.47,2154.43 1319.89,2154.85L1321.64,2156.61L1321.64,2150.45L1317.19,2150.45L1316.52,2147.99C1316.3,2147.91 1316.09,2147.82 1315.88,2147.73L1313.66,2148.99L1310.01,2145.34L1311.27,2143.12L1311.21,2142.97ZM1327.26,2163.55L1316.03,2163.55L1316.03,2161.68L1327.26,2161.68L1327.26,2163.55ZM1302,2144.84C1296.84,2144.84 1292.64,2149.03 1292.64,2154.19C1292.64,2159.35 1296.84,2163.55 1302,2163.55C1307.16,2163.55 1311.36,2159.35 1311.36,2154.19C1311.36,2149.03 1307.16,2144.84 1302,2144.84ZM1302,2161.68C1301.71,2161.68 1301.08,2160.72 1300.63,2158.87L1303.37,2158.87C1302.92,2160.72 1302.29,2161.68 1302,2161.68ZM1304.59,2161.21C1304.88,2160.53 1305.11,2159.73 1305.29,2158.87L1307.83,2158.87C1306.99,2159.92 1305.87,2160.73 1304.59,2161.21ZM1296.17,2158.87L1298.71,2158.87C1298.89,2159.73 1299.12,2160.53 1299.41,2161.21C1298.13,2160.73 1297.01,2159.92 1296.17,2158.87ZM1325.39,2157.93L1325.39,2148.71L1323.67,2147.73C1323.62,2147.75 1323.57,2147.77 1323.52,2147.79L1323.52,2157.93L1325.39,2157.93ZM1303.85,2155.13L1300.15,2155.13L1300.3,2157L1303.7,2157L1303.85,2155.13ZM1298.28,2155.13L1294.58,2155.13L1295.07,2157L1298.41,2157L1298.28,2155.13ZM1309.42,2155.13L1305.72,2155.13L1305.59,2157L1308.93,2157L1309.42,2155.13ZM1278.61,2146.71L1280.48,2146.71L1280.48,2156.12C1279.84,2156.19 1279.21,2156.34 1278.61,2156.56L1278.61,2146.71ZM1303.7,2151.39L1300.3,2151.39L1300.15,2153.26L1303.85,2153.26L1303.7,2151.39ZM1308.93,2151.39L1305.59,2151.39L1305.72,2153.26L1309.42,2153.26L1308.93,2151.39ZM1298.41,2151.39L1295.07,2151.39L1294.58,2153.26L1298.28,2153.26L1298.41,2151.39ZM1298.71,2149.52L1299.41,2147.18C1298.13,2147.65 1297.01,2148.47 1296.17,2149.52L1298.71,2149.52ZM1307.83,2149.52C1306.86,2148.37 1305.79,2147.63 1304.59,2147.18C1304.88,2147.86 1305.11,2148.66 1305.29,2149.52L1307.83,2149.52ZM1303.37,2149.52C1302.86,2147.58 1302.28,2146.71 1302,2146.71C1301.71,2146.71 1301.08,2147.67 1300.63,2149.52L1303.37,2149.52ZM1320.93,2129.87L1318.62,2129.87L1318.06,2131.92L1317.56,2132.07C1317.13,2132.21 1316.7,2132.39 1316.28,2132.61L1315.83,2132.85L1313.98,2131.79L1312.34,2133.43L1313.4,2135.28L1313.16,2135.73C1312.93,2136.15 1312.76,2136.59 1312.62,2137.02L1312.47,2137.51L1310.42,2138.07L1310.42,2140.38L1312.47,2140.95L1312.62,2141.43C1312.76,2141.86 1312.93,2142.3 1313.16,2142.72L1313.4,2143.17L1312.34,2145.02L1313.98,2146.66L1315.83,2145.6L1316.28,2145.84C1316.7,2146.06 1317.13,2146.24 1317.56,2146.38L1318.06,2146.53L1318.62,2148.58L1320.93,2148.58L1321.49,2146.53L1321.98,2146.38C1322.42,2146.24 1322.85,2146.06 1323.26,2145.84L1323.72,2145.6L1325.57,2146.66L1327.21,2145.02L1326.15,2143.17L1326.39,2142.72C1326.61,2142.3 1326.79,2141.86 1326.93,2141.43L1327.08,2140.94L1329.13,2140.38L1329.13,2138.07L1327.08,2137.51L1326.93,2137.02C1326.79,2136.59 1326.61,2136.15 1326.39,2135.73L1326.15,2135.28L1327.21,2133.43L1325.57,2131.79L1323.72,2132.85L1323.26,2132.61C1322.85,2132.39 1322.42,2132.21 1321.98,2132.07L1321.49,2131.92L1320.93,2129.87ZM1291.64,2144.84L1286,2140.74C1285.44,2140.97 1284.84,2141.1 1284.23,2141.1C1283.61,2141.1 1283.01,2140.97 1282.45,2140.74L1276.81,2144.84L1291.64,2144.84ZM1319.77,2133.61C1316.68,2133.61 1314.16,2136.13 1314.16,2139.23C1314.16,2142.32 1316.68,2144.84 1319.77,2144.84C1322.87,2144.84 1325.39,2142.32 1325.39,2139.23C1325.39,2136.13 1322.87,2133.61 1319.77,2133.61ZM1293.58,2143.94L1287.64,2139.62C1287.75,2139.49 1287.87,2139.36 1287.97,2139.23L1293.58,2131.74L1293.58,2143.94ZM1280.48,2139.23C1280.59,2139.36 1280.7,2139.49 1280.81,2139.62L1274.87,2143.94L1274.87,2131.74L1280.48,2139.23ZM1319.77,2142.97C1317.71,2142.97 1316.03,2141.29 1316.03,2139.23C1316.03,2137.16 1317.71,2135.48 1319.77,2135.48C1321.84,2135.48 1323.52,2137.16 1323.52,2139.23C1323.52,2141.29 1321.84,2142.97 1319.77,2142.97ZM1308.55,2139.23L1295.45,2139.23L1295.45,2141.1L1308.55,2141.1L1308.55,2139.23ZM1286.47,2138.1C1285.94,2138.81 1285.1,2139.23 1284.23,2139.23C1283.35,2139.23 1282.51,2138.81 1281.98,2138.1L1275.81,2129.87L1292.64,2129.87L1286.47,2138.1Z"/>
            </clipPath>
            <g clip-path="url(#_clip1)">
                <path id="Elipsa-2" serif:id="Elipsa 2" d="M1301.52,2143.47C1307.12,2143.47 1311.66,2148.02 1311.66,2153.62C1311.66,2159.23 1307.12,2163.78 1301.52,2163.78C1295.91,2163.78 1291.38,2159.23 1291.38,2153.62C1291.38,2148.02 1295.91,2143.47 1301.52,2143.47Z" style="fill:rgb(164,0,93);"/>
            </g>
        </g>
    </g>
</svg>
