<?xml version="1.0" encoding="UTF-8" standalone="no"?>
<!DOCTYPE svg PUBLIC "-//W3C//DTD SVG 1.1//EN" "http://www.w3.org/Graphics/SVG/1.1/DTD/svg11.dtd">
<svg width="100%" height="100%" viewBox="0 0 57 56" version="1.1" xmlns="http://www.w3.org/2000/svg" xmlns:xlink="http://www.w3.org/1999/xlink" xml:space="preserve" xmlns:serif="http://www.serif.com/" style="fill-rule:evenodd;clip-rule:evenodd;stroke-linejoin:round;stroke-miterlimit:2;">
    <g transform="matrix(1,0,0,1,-590,-1899)">
        <g id="iko">
            <path id="display_kampane" d="M612.581,1949.58L612.581,1947.98L609.597,1941.85C609.208,1941.17 608.944,1940.38 608.841,1939.55L608.216,1934.55C608.139,1933.93 607.917,1933.33 607.573,1932.82L606.644,1931.42C606.392,1931.05 606.259,1930.61 606.259,1930.15C606.259,1928.89 607.287,1927.86 608.549,1927.86C611.313,1927.86 613.714,1929.83 614.257,1932.54L615.015,1936.33C615.196,1935.96 615.291,1935.55 615.291,1935.14L615.291,1918.49C611.533,1917.43 608.755,1914.23 608.182,1910.4L604.362,1912.5C606.602,1914.14 608.064,1916.79 608.064,1919.77C608.064,1924.75 604.013,1928.81 599.032,1928.81C594.052,1928.81 590,1924.75 590,1919.77C590,1914.79 594.052,1910.74 599.032,1910.74C600.271,1910.74 601.452,1910.99 602.528,1911.45L608.092,1908.39C608.38,1903.16 612.707,1899 618,1899C623.293,1899 627.62,1903.16 627.907,1908.38L633.472,1911.45C634.548,1910.99 635.729,1910.74 636.968,1910.74C641.948,1910.74 646,1914.79 646,1919.77C646,1924.75 641.948,1928.81 636.968,1928.81C631.987,1928.81 627.935,1924.75 627.935,1919.77C627.935,1916.79 629.398,1914.14 631.637,1912.5L627.818,1910.4C627.244,1914.22 624.465,1917.43 620.71,1918.49L620.71,1926.26C620.993,1926.16 621.295,1926.1 621.613,1926.1C622.309,1926.1 622.939,1926.37 623.419,1926.8C623.9,1926.37 624.529,1926.1 625.226,1926.1C626.475,1926.1 627.519,1926.95 627.831,1928.1C628.143,1927.98 628.482,1927.9 628.839,1927.9C630.333,1927.9 631.548,1929.12 631.548,1930.61L631.548,1942.35C631.548,1943.72 631.099,1945.06 630.284,1946.15L628.839,1948.08L628.839,1949.58L630.645,1949.58L630.645,1955L610.774,1955L610.774,1949.58L612.581,1949.58ZM628.839,1953.19L628.839,1951.39L612.581,1951.39L612.581,1953.19L628.839,1953.19ZM627.032,1949.58L627.032,1947.47L628.839,1945.06C629.421,1944.29 629.742,1943.33 629.742,1942.35L629.742,1930.61C629.742,1930.11 629.337,1929.71 628.839,1929.71C628.34,1929.71 627.935,1930.11 627.935,1930.61L627.935,1932.42L626.129,1932.42L626.129,1928.81C626.129,1928.31 625.724,1927.9 625.226,1927.9C624.727,1927.9 624.322,1928.31 624.322,1928.81L624.322,1932.42L622.516,1932.42L622.516,1928.81C622.516,1928.31 622.111,1927.9 621.613,1927.9C621.114,1927.9 620.71,1928.31 620.71,1928.81L620.71,1932.42L618.903,1932.42L618.903,1917.97C618.903,1917.47 618.499,1917.06 618,1917.06C617.501,1917.06 617.097,1917.47 617.097,1917.97L617.097,1935.14C617.097,1935.84 616.931,1936.54 616.62,1937.16L615.848,1938.7L613.646,1938.7L612.485,1932.9C612.11,1931.03 610.454,1929.67 608.548,1929.67C608.281,1929.67 608.064,1929.89 608.064,1930.15C608.064,1930.25 608.092,1930.34 608.146,1930.42L609.076,1931.82C609.576,1932.57 609.897,1933.43 610.008,1934.33L610.633,1939.32C610.707,1939.92 610.895,1940.48 611.193,1941L614.387,1947.57L614.387,1949.58L627.032,1949.58ZM597.226,1930.61L597.226,1942.52C598.274,1942.89 599.032,1943.89 599.032,1945.06C599.032,1946.56 597.816,1947.77 596.323,1947.77C594.829,1947.77 593.613,1946.56 593.613,1945.06C593.613,1943.89 594.371,1942.89 595.419,1942.52L595.419,1930.61L597.226,1930.61ZM601.742,1930.61C600.248,1930.61 599.032,1931.83 599.032,1933.32C599.032,1934.5 599.79,1935.49 600.839,1935.87L600.839,1947.77L602.645,1947.77L602.645,1935.87C603.694,1935.49 604.452,1934.5 604.452,1933.32C604.452,1931.83 603.236,1930.61 601.742,1930.61ZM636.968,1930.61L636.968,1942.52C638.016,1942.89 638.774,1943.89 638.774,1945.06C638.774,1946.56 637.558,1947.77 636.064,1947.77C634.571,1947.77 633.355,1946.56 633.355,1945.06C633.355,1943.89 634.113,1942.89 635.161,1942.52L635.161,1930.61L636.968,1930.61ZM641.484,1930.61C639.99,1930.61 638.774,1931.83 638.774,1933.32C638.774,1934.5 639.532,1935.49 640.581,1935.87L640.581,1947.77L642.387,1947.77L642.387,1935.87C643.436,1935.49 644.194,1934.5 644.194,1933.32C644.194,1931.83 642.978,1930.61 641.484,1930.61ZM596.323,1945.97C595.824,1945.97 595.419,1945.56 595.419,1945.06C595.419,1944.57 595.824,1944.16 596.323,1944.16C596.821,1944.16 597.226,1944.57 597.226,1945.06C597.226,1945.56 596.821,1945.97 596.323,1945.97ZM636.064,1945.97C635.566,1945.97 635.161,1945.56 635.161,1945.06C635.161,1944.57 635.566,1944.16 636.064,1944.16C636.563,1944.16 636.968,1944.57 636.968,1945.06C636.968,1945.56 636.563,1945.97 636.064,1945.97ZM601.742,1934.23C601.243,1934.23 600.839,1933.82 600.839,1933.32C600.839,1932.82 601.243,1932.42 601.742,1932.42C602.24,1932.42 602.645,1932.82 602.645,1933.32C602.645,1933.82 602.24,1934.23 601.742,1934.23ZM641.484,1934.23C640.985,1934.23 640.581,1933.82 640.581,1933.32C640.581,1932.82 640.985,1932.42 641.484,1932.42C641.982,1932.42 642.387,1932.82 642.387,1933.32C642.387,1933.82 641.982,1934.23 641.484,1934.23ZM599.032,1927C597.407,1927 595.912,1926.45 594.704,1925.55C595.72,1924.2 597.319,1923.39 599.032,1923.39C600.746,1923.39 602.344,1924.2 603.36,1925.55C602.153,1926.45 600.657,1927 599.032,1927ZM636.968,1927C635.343,1927 633.847,1926.45 632.639,1925.55C633.656,1924.2 635.254,1923.39 636.968,1923.39C638.681,1923.39 640.28,1924.2 641.296,1925.55C640.088,1926.45 638.593,1927 636.968,1927ZM606.258,1919.77C606.258,1921.48 605.658,1923.06 604.661,1924.29C603.946,1923.4 603.039,1922.7 602.014,1922.24C602.948,1921.41 603.548,1920.21 603.548,1918.87C603.548,1916.38 601.522,1914.36 599.032,1914.36C596.542,1914.36 594.516,1916.38 594.516,1918.87C594.516,1920.21 595.117,1921.41 596.051,1922.24C595.025,1922.7 594.119,1923.4 593.403,1924.29C592.406,1923.06 591.806,1921.48 591.806,1919.77C591.806,1915.79 595.048,1912.55 599.032,1912.55C603.016,1912.55 606.258,1915.79 606.258,1919.77ZM636.968,1912.55C640.952,1912.55 644.194,1915.79 644.194,1919.77C644.194,1921.48 643.594,1923.06 642.597,1924.29C641.881,1923.4 640.974,1922.7 639.949,1922.24C640.883,1921.41 641.484,1920.21 641.484,1918.87C641.484,1916.38 639.458,1914.36 636.968,1914.36C634.478,1914.36 632.452,1916.38 632.452,1918.87C632.452,1920.21 633.052,1921.41 633.986,1922.24C632.961,1922.7 632.054,1923.4 631.339,1924.29C630.342,1923.06 629.742,1921.48 629.742,1919.77C629.742,1915.79 632.984,1912.55 636.968,1912.55ZM596.323,1918.87C596.323,1917.38 597.538,1916.16 599.032,1916.16C600.526,1916.16 601.742,1917.38 601.742,1918.87C601.742,1920.37 600.526,1921.58 599.032,1921.58C597.538,1921.58 596.323,1920.37 596.323,1918.87ZM634.258,1918.87C634.258,1917.38 635.474,1916.16 636.968,1916.16C638.462,1916.16 639.677,1917.38 639.677,1918.87C639.677,1920.37 638.462,1921.58 636.968,1921.58C635.474,1921.58 634.258,1920.37 634.258,1918.87ZM612.908,1915.26C613.664,1913.11 615.677,1911.64 618,1911.64C620.321,1911.64 622.334,1913.11 623.092,1915.26C622.301,1915.9 621.389,1916.4 620.384,1916.71C619.928,1915.85 619.037,1915.26 618,1915.26C616.963,1915.26 616.072,1915.85 615.616,1916.71C614.611,1916.4 613.699,1915.9 612.908,1915.26ZM609.871,1908.93C609.871,1904.45 613.517,1900.81 618,1900.81C622.483,1900.81 626.129,1904.45 626.129,1908.93C626.129,1910.76 625.51,1912.46 624.465,1913.84C623.722,1912.34 622.491,1911.16 620.993,1910.48C621.92,1909.66 622.516,1908.47 622.516,1907.13C622.516,1904.64 620.49,1902.61 618,1902.61C615.51,1902.61 613.484,1904.64 613.484,1907.13C613.484,1908.47 614.08,1909.66 615.007,1910.48C613.508,1911.16 612.277,1912.34 611.534,1913.84C610.489,1912.47 609.871,1910.76 609.871,1908.93L609.871,1908.93ZM620.71,1907.13C620.71,1908.62 619.494,1909.84 618,1909.84C616.506,1909.84 615.29,1908.62 615.29,1907.13C615.29,1905.63 616.506,1904.42 618,1904.42C619.494,1904.42 620.71,1905.63 620.71,1907.13Z" style="fill:rgb(252,181,58);"/>
        </g>
    </g>
</svg>
