<?xml version="1.0" encoding="UTF-8" standalone="no"?>
<!DOCTYPE svg PUBLIC "-//W3C//DTD SVG 1.1//EN" "http://www.w3.org/Graphics/SVG/1.1/DTD/svg11.dtd">
<svg width="100%" height="100%" viewBox="0 0 54 57" version="1.1" xmlns="http://www.w3.org/2000/svg" xmlns:xlink="http://www.w3.org/1999/xlink" xml:space="preserve" xmlns:serif="http://www.serif.com/" style="fill-rule:evenodd;clip-rule:evenodd;stroke-linejoin:round;stroke-miterlimit:2;">
    <g transform="matrix(1,0,0,1,-591.001,-2129)">
        <g id="iko">
            <path id="Tvar-3" serif:id="Tvar 3" d="M622.552,2176.6L622.654,2177.53C622.654,2179.82 619.368,2183.87 618.717,2184.66C618.54,2184.88 618.277,2185 618,2185C617.723,2185 617.46,2184.88 617.283,2184.66C616.632,2183.87 613.346,2179.82 613.346,2177.53L613.448,2176.6L612.415,2176.6C611.647,2176.52 611.139,2176.19 610.842,2175.69C605.723,2175.81 604.419,2176.97 603.107,2176.97C602.147,2176.97 601.256,2176.48 600.746,2175.66C600.235,2174.85 600.178,2173.83 600.594,2172.96C601.243,2171.6 602.046,2170.31 602.986,2169.13C600.977,2169.07 599.383,2167.42 599.384,2165.4L599.384,2146.74C599.384,2144.74 600.941,2143.12 603.107,2143L611.484,2143L611.484,2140.2C611.484,2135.21 617.069,2129.52 617.339,2129.28C617.514,2129.1 617.752,2129 618,2129C618.248,2129 618.486,2129.1 618.661,2129.28C618.931,2129.52 624.516,2135.21 624.516,2140.2L624.516,2143L632.893,2143C635.755,2143.97 636.616,2145.26 636.616,2146.74L636.616,2165.4C636.617,2167.42 635.023,2169.07 633.014,2169.13C633.954,2170.3 634.757,2171.58 635.406,2172.93C635.82,2173.8 635.765,2174.81 635.259,2175.63C634.754,2176.44 633.868,2176.94 632.911,2176.95C631.692,2176.95 630.11,2175.78 625.176,2175.67L623.585,2176.6L622.552,2176.6ZM620.792,2177.53C620.792,2178.53 619.331,2180.83 618,2182.57C616.669,2180.83 615.207,2178.54 615.207,2177.53C615.213,2177.21 615.276,2176.9 615.394,2176.6L620.606,2176.6C620.724,2176.9 620.787,2177.21 620.792,2177.53ZM592.868,2172.87C592.354,2172.87 591.937,2173.28 591.937,2173.8L591.937,2179.4C591.937,2179.91 592.354,2180.33 592.868,2180.33C593.382,2180.33 593.799,2179.91 593.799,2179.4L593.799,2173.8C593.799,2173.28 593.382,2172.87 592.868,2172.87ZM643.132,2172.87C642.618,2172.87 642.201,2173.28 642.201,2173.8L642.201,2179.4C642.201,2179.91 642.618,2180.33 643.132,2180.33C643.646,2180.33 644.063,2179.91 644.063,2179.4L644.063,2173.8C644.063,2173.28 643.646,2172.87 643.132,2172.87ZM595.661,2174.73C595.661,2175.25 596.077,2175.67 596.591,2175.67C597.105,2175.67 597.522,2175.25 597.522,2174.73L597.522,2163.53C597.522,2163.02 597.105,2162.6 596.591,2162.6C596.077,2162.6 595.661,2163.02 595.661,2163.53L595.661,2174.73ZM638.478,2174.73C638.478,2175.25 638.894,2175.67 639.409,2175.67C639.923,2175.67 640.339,2175.25 640.339,2174.73L640.339,2163.53C640.339,2163.02 639.923,2162.6 639.409,2162.6C638.894,2162.6 638.478,2163.02 638.478,2163.53L638.478,2174.73ZM633.582,2174.8C632.651,2175.73 631.878,2174.03 625.446,2173.87L625.446,2169.13L630.584,2169.13C631.846,2170.51 632.902,2172.06 633.721,2173.74C633.899,2174.09 633.843,2174.51 633.582,2174.8ZM603.414,2174.97C603.055,2175.1 602.655,2174.99 602.405,2174.71C602.155,2174.42 602.105,2174.01 602.279,2173.67C603.104,2172.01 604.16,2170.49 605.415,2169.13L610.553,2169.13L610.553,2173.8C608.125,2173.86 605.718,2174.28 603.414,2175.05L603.414,2174.97ZM623.585,2169.13L612.415,2169.13L612.415,2174.73L623.585,2174.73L623.585,2169.13ZM593.799,2157.93C593.799,2157.42 593.382,2157 592.868,2157C592.354,2157 591.937,2157.42 591.937,2157.93L591.937,2169.13C591.937,2169.65 592.354,2170.07 592.868,2170.07C593.382,2170.07 593.799,2169.65 593.799,2169.13L593.799,2157.93ZM644.063,2157.93C644.063,2157.42 643.646,2157 643.132,2157C642.618,2157 642.201,2157.42 642.201,2157.93L642.201,2169.13C642.201,2169.65 642.618,2170.07 643.132,2170.07C643.646,2170.07 644.063,2169.65 644.063,2169.13L644.063,2157.93ZM633.088,2167.27L621.202,2157.24L620.327,2158.02C618.987,2159.17 617.013,2159.17 615.673,2158.02L614.798,2157.28L602.911,2167.27L633.088,2167.27ZM634.615,2146.05C634.81,2146.53 634.754,2144.93 634.754,2165.4C634.756,2165.64 634.708,2165.87 634.615,2166.09L622.654,2156.07L634.615,2146.05ZM601.245,2165.4C601.245,2144.93 601.189,2146.53 601.385,2146.05L613.346,2156.07L601.385,2166.09C601.292,2165.87 601.244,2165.64 601.245,2165.4L601.245,2165.4ZM639.409,2159.8C639.923,2159.8 640.339,2159.38 640.339,2158.87L640.339,2156.07C640.339,2155.55 639.923,2155.14 639.409,2155.14C638.894,2155.14 638.478,2155.55 638.478,2156.07L638.478,2158.87C638.478,2159.38 638.894,2159.8 639.409,2159.8ZM596.591,2159.8C597.105,2159.8 597.522,2159.38 597.522,2158.87L597.522,2156.07C597.522,2155.55 597.105,2155.14 596.591,2155.14C596.077,2155.14 595.661,2155.55 595.661,2156.07L595.661,2158.87C595.661,2159.38 596.077,2159.8 596.591,2159.8ZM633.088,2144.87L619.126,2156.56C618.472,2157.12 617.509,2157.12 616.855,2156.56L602.911,2144.87L633.088,2144.87ZM622.654,2143C622.66,2140.17 622.77,2139.43 622.207,2137.78C619.785,2139.82 616.252,2139.82 613.83,2137.78C613.225,2139.46 613.346,2140.05 613.346,2143L622.654,2143ZM600.584,2139.93C600.759,2140.11 600.997,2140.21 601.245,2140.21C601.494,2140.21 601.731,2140.11 601.906,2139.93L602.176,2139.65L602.446,2139.93C602.811,2140.3 603.403,2140.3 603.768,2139.93C604.133,2139.57 604.133,2138.97 603.768,2138.61L603.489,2138.34L603.768,2138.07C604.133,2137.7 604.133,2137.11 603.768,2136.74C603.403,2136.38 602.811,2136.38 602.446,2136.74L602.176,2137.02L601.906,2136.74C601.541,2136.38 600.95,2136.38 600.584,2136.74C600.219,2137.11 600.219,2137.7 600.584,2138.07L600.864,2138.34L600.584,2138.61C600.408,2138.78 600.309,2139.02 600.309,2139.27C600.309,2139.52 600.408,2139.76 600.584,2139.93ZM632.232,2139.93C632.407,2140.11 632.645,2140.21 632.893,2140.21C633.141,2140.21 633.379,2140.11 633.554,2139.93L633.824,2139.65L634.094,2139.93C634.459,2140.3 635.05,2140.3 635.415,2139.93C635.78,2139.57 635.78,2138.97 635.415,2138.61L635.136,2138.34L635.415,2138.07C635.78,2137.7 635.78,2137.11 635.415,2136.74C635.05,2136.38 634.459,2136.38 634.094,2136.74L633.824,2137.02L633.554,2136.74C633.189,2136.38 632.597,2136.38 632.232,2136.74C631.867,2137.11 631.867,2137.7 632.232,2138.07L632.511,2138.34L632.232,2138.61C632.056,2138.78 631.957,2139.02 631.957,2139.27C631.957,2139.52 632.056,2139.76 632.232,2139.93ZM618,2131.31C619.282,2132.74 620.403,2134.3 621.342,2135.98C620.48,2136.91 619.269,2137.44 618,2137.44C616.731,2137.44 615.52,2136.91 614.658,2135.98C615.599,2134.3 616.719,2132.74 618,2131.31L618,2131.31ZM591.276,2133.4C591.451,2133.58 591.689,2133.68 591.937,2133.68C592.186,2133.68 592.423,2133.58 592.598,2133.4L592.868,2133.12L593.138,2133.4C593.503,2133.77 594.095,2133.77 594.46,2133.4C594.825,2133.03 594.825,2132.44 594.46,2132.08L594.181,2131.8L594.46,2131.53C594.825,2131.17 594.825,2130.57 594.46,2130.21C594.095,2129.84 593.503,2129.84 593.138,2130.21L592.868,2130.49L592.598,2130.21C592.233,2129.84 591.641,2129.84 591.276,2130.21C590.911,2130.57 590.911,2131.17 591.276,2131.53L591.556,2131.8L591.276,2132.08C591.1,2132.25 591.001,2132.49 591.001,2132.74C591.001,2132.99 591.1,2133.22 591.276,2133.4ZM641.54,2133.4C641.715,2133.58 641.953,2133.68 642.201,2133.68C642.449,2133.68 642.687,2133.58 642.862,2133.4L643.132,2133.12L643.402,2133.4C643.767,2133.77 644.358,2133.77 644.723,2133.4C645.088,2133.03 645.088,2132.44 644.723,2132.08L644.444,2131.8L644.723,2131.53C644.959,2131.3 645.052,2130.95 644.965,2130.63C644.879,2130.31 644.627,2130.05 644.304,2129.97C643.982,2129.88 643.638,2129.97 643.402,2130.21L643.132,2130.49L642.862,2130.21C642.497,2129.84 641.905,2129.84 641.54,2130.21C641.175,2130.57 641.175,2131.17 641.54,2131.53L641.819,2131.8L641.54,2132.08C641.364,2132.25 641.265,2132.49 641.265,2132.74C641.265,2132.99 641.364,2133.22 641.54,2133.4L641.54,2133.4Z" style="fill:rgb(252,181,58);"/>
            <clipPath id="_clip1">
                <path id="Tvar-31" serif:id="Tvar 3" d="M622.552,2176.6L622.654,2177.53C622.654,2179.82 619.368,2183.87 618.717,2184.66C618.54,2184.88 618.277,2185 618,2185C617.723,2185 617.46,2184.88 617.283,2184.66C616.632,2183.87 613.346,2179.82 613.346,2177.53L613.448,2176.6L612.415,2176.6C611.647,2176.52 611.139,2176.19 610.842,2175.69C605.723,2175.81 604.419,2176.97 603.107,2176.97C602.147,2176.97 601.256,2176.48 600.746,2175.66C600.235,2174.85 600.178,2173.83 600.594,2172.96C601.243,2171.6 602.046,2170.31 602.986,2169.13C600.977,2169.07 599.383,2167.42 599.384,2165.4L599.384,2146.74C599.384,2144.74 600.941,2143.12 603.107,2143L611.484,2143L611.484,2140.2C611.484,2135.21 617.069,2129.52 617.339,2129.28C617.514,2129.1 617.752,2129 618,2129C618.248,2129 618.486,2129.1 618.661,2129.28C618.931,2129.52 624.516,2135.21 624.516,2140.2L624.516,2143L632.893,2143C635.755,2143.97 636.616,2145.26 636.616,2146.74L636.616,2165.4C636.617,2167.42 635.023,2169.07 633.014,2169.13C633.954,2170.3 634.757,2171.58 635.406,2172.93C635.82,2173.8 635.765,2174.81 635.259,2175.63C634.754,2176.44 633.868,2176.94 632.911,2176.95C631.692,2176.95 630.11,2175.78 625.176,2175.67L623.585,2176.6L622.552,2176.6ZM620.792,2177.53C620.792,2178.53 619.331,2180.83 618,2182.57C616.669,2180.83 615.207,2178.54 615.207,2177.53C615.213,2177.21 615.276,2176.9 615.394,2176.6L620.606,2176.6C620.724,2176.9 620.787,2177.21 620.792,2177.53ZM592.868,2172.87C592.354,2172.87 591.937,2173.28 591.937,2173.8L591.937,2179.4C591.937,2179.91 592.354,2180.33 592.868,2180.33C593.382,2180.33 593.799,2179.91 593.799,2179.4L593.799,2173.8C593.799,2173.28 593.382,2172.87 592.868,2172.87ZM643.132,2172.87C642.618,2172.87 642.201,2173.28 642.201,2173.8L642.201,2179.4C642.201,2179.91 642.618,2180.33 643.132,2180.33C643.646,2180.33 644.063,2179.91 644.063,2179.4L644.063,2173.8C644.063,2173.28 643.646,2172.87 643.132,2172.87ZM595.661,2174.73C595.661,2175.25 596.077,2175.67 596.591,2175.67C597.105,2175.67 597.522,2175.25 597.522,2174.73L597.522,2163.53C597.522,2163.02 597.105,2162.6 596.591,2162.6C596.077,2162.6 595.661,2163.02 595.661,2163.53L595.661,2174.73ZM638.478,2174.73C638.478,2175.25 638.894,2175.67 639.409,2175.67C639.923,2175.67 640.339,2175.25 640.339,2174.73L640.339,2163.53C640.339,2163.02 639.923,2162.6 639.409,2162.6C638.894,2162.6 638.478,2163.02 638.478,2163.53L638.478,2174.73ZM633.582,2174.8C632.651,2175.73 631.878,2174.03 625.446,2173.87L625.446,2169.13L630.584,2169.13C631.846,2170.51 632.902,2172.06 633.721,2173.74C633.899,2174.09 633.843,2174.51 633.582,2174.8ZM603.414,2174.97C603.055,2175.1 602.655,2174.99 602.405,2174.71C602.155,2174.42 602.105,2174.01 602.279,2173.67C603.104,2172.01 604.16,2170.49 605.415,2169.13L610.553,2169.13L610.553,2173.8C608.125,2173.86 605.718,2174.28 603.414,2175.05L603.414,2174.97ZM623.585,2169.13L612.415,2169.13L612.415,2174.73L623.585,2174.73L623.585,2169.13ZM593.799,2157.93C593.799,2157.42 593.382,2157 592.868,2157C592.354,2157 591.937,2157.42 591.937,2157.93L591.937,2169.13C591.937,2169.65 592.354,2170.07 592.868,2170.07C593.382,2170.07 593.799,2169.65 593.799,2169.13L593.799,2157.93ZM644.063,2157.93C644.063,2157.42 643.646,2157 643.132,2157C642.618,2157 642.201,2157.42 642.201,2157.93L642.201,2169.13C642.201,2169.65 642.618,2170.07 643.132,2170.07C643.646,2170.07 644.063,2169.65 644.063,2169.13L644.063,2157.93ZM633.088,2167.27L621.202,2157.24L620.327,2158.02C618.987,2159.17 617.013,2159.17 615.673,2158.02L614.798,2157.28L602.911,2167.27L633.088,2167.27ZM634.615,2146.05C634.81,2146.53 634.754,2144.93 634.754,2165.4C634.756,2165.64 634.708,2165.87 634.615,2166.09L622.654,2156.07L634.615,2146.05ZM601.245,2165.4C601.245,2144.93 601.189,2146.53 601.385,2146.05L613.346,2156.07L601.385,2166.09C601.292,2165.87 601.244,2165.64 601.245,2165.4L601.245,2165.4ZM639.409,2159.8C639.923,2159.8 640.339,2159.38 640.339,2158.87L640.339,2156.07C640.339,2155.55 639.923,2155.14 639.409,2155.14C638.894,2155.14 638.478,2155.55 638.478,2156.07L638.478,2158.87C638.478,2159.38 638.894,2159.8 639.409,2159.8ZM596.591,2159.8C597.105,2159.8 597.522,2159.38 597.522,2158.87L597.522,2156.07C597.522,2155.55 597.105,2155.14 596.591,2155.14C596.077,2155.14 595.661,2155.55 595.661,2156.07L595.661,2158.87C595.661,2159.38 596.077,2159.8 596.591,2159.8ZM633.088,2144.87L619.126,2156.56C618.472,2157.12 617.509,2157.12 616.855,2156.56L602.911,2144.87L633.088,2144.87ZM622.654,2143C622.66,2140.17 622.77,2139.43 622.207,2137.78C619.785,2139.82 616.252,2139.82 613.83,2137.78C613.225,2139.46 613.346,2140.05 613.346,2143L622.654,2143ZM600.584,2139.93C600.759,2140.11 600.997,2140.21 601.245,2140.21C601.494,2140.21 601.731,2140.11 601.906,2139.93L602.176,2139.65L602.446,2139.93C602.811,2140.3 603.403,2140.3 603.768,2139.93C604.133,2139.57 604.133,2138.97 603.768,2138.61L603.489,2138.34L603.768,2138.07C604.133,2137.7 604.133,2137.11 603.768,2136.74C603.403,2136.38 602.811,2136.38 602.446,2136.74L602.176,2137.02L601.906,2136.74C601.541,2136.38 600.95,2136.38 600.584,2136.74C600.219,2137.11 600.219,2137.7 600.584,2138.07L600.864,2138.34L600.584,2138.61C600.408,2138.78 600.309,2139.02 600.309,2139.27C600.309,2139.52 600.408,2139.76 600.584,2139.93ZM632.232,2139.93C632.407,2140.11 632.645,2140.21 632.893,2140.21C633.141,2140.21 633.379,2140.11 633.554,2139.93L633.824,2139.65L634.094,2139.93C634.459,2140.3 635.05,2140.3 635.415,2139.93C635.78,2139.57 635.78,2138.97 635.415,2138.61L635.136,2138.34L635.415,2138.07C635.78,2137.7 635.78,2137.11 635.415,2136.74C635.05,2136.38 634.459,2136.38 634.094,2136.74L633.824,2137.02L633.554,2136.74C633.189,2136.38 632.597,2136.38 632.232,2136.74C631.867,2137.11 631.867,2137.7 632.232,2138.07L632.511,2138.34L632.232,2138.61C632.056,2138.78 631.957,2139.02 631.957,2139.27C631.957,2139.52 632.056,2139.76 632.232,2139.93ZM618,2131.31C619.282,2132.74 620.403,2134.3 621.342,2135.98C620.48,2136.91 619.269,2137.44 618,2137.44C616.731,2137.44 615.52,2136.91 614.658,2135.98C615.599,2134.3 616.719,2132.74 618,2131.31L618,2131.31ZM591.276,2133.4C591.451,2133.58 591.689,2133.68 591.937,2133.68C592.186,2133.68 592.423,2133.58 592.598,2133.4L592.868,2133.12L593.138,2133.4C593.503,2133.77 594.095,2133.77 594.46,2133.4C594.825,2133.03 594.825,2132.44 594.46,2132.08L594.181,2131.8L594.46,2131.53C594.825,2131.17 594.825,2130.57 594.46,2130.21C594.095,2129.84 593.503,2129.84 593.138,2130.21L592.868,2130.49L592.598,2130.21C592.233,2129.84 591.641,2129.84 591.276,2130.21C590.911,2130.57 590.911,2131.17 591.276,2131.53L591.556,2131.8L591.276,2132.08C591.1,2132.25 591.001,2132.49 591.001,2132.74C591.001,2132.99 591.1,2133.22 591.276,2133.4ZM641.54,2133.4C641.715,2133.58 641.953,2133.68 642.201,2133.68C642.449,2133.68 642.687,2133.58 642.862,2133.4L643.132,2133.12L643.402,2133.4C643.767,2133.77 644.358,2133.77 644.723,2133.4C645.088,2133.03 645.088,2132.44 644.723,2132.08L644.444,2131.8L644.723,2131.53C644.959,2131.3 645.052,2130.95 644.965,2130.63C644.879,2130.31 644.627,2130.05 644.304,2129.97C643.982,2129.88 643.638,2129.97 643.402,2130.21L643.132,2130.49L642.862,2130.21C642.497,2129.84 641.905,2129.84 641.54,2130.21C641.175,2130.57 641.175,2131.17 641.54,2131.53L641.819,2131.8L641.54,2132.08C641.364,2132.25 641.265,2132.49 641.265,2132.74C641.265,2132.99 641.364,2133.22 641.54,2133.4L641.54,2133.4Z"/>
            </clipPath>
            <g clip-path="url(#_clip1)">
                <rect id="Obdélník-36" serif:id="Obdélník 36" x="599" y="2143" width="38" height="26" style="fill:rgb(164,0,93);"/>
            </g>
        </g>
    </g>
</svg>
