<?xml version="1.0" encoding="UTF-8" standalone="no"?>
<!DOCTYPE svg PUBLIC "-//W3C//DTD SVG 1.1//EN" "http://www.w3.org/Graphics/SVG/1.1/DTD/svg11.dtd">
<svg width="100%" height="100%" viewBox="0 0 58 58" version="1.1" xmlns="http://www.w3.org/2000/svg" xmlns:xlink="http://www.w3.org/1999/xlink" xml:space="preserve" xmlns:serif="http://www.serif.com/" style="fill-rule:evenodd;clip-rule:evenodd;stroke-linejoin:round;stroke-miterlimit:2;">
    <g transform="matrix(1,0,0,1,-1274,-1899)">
        <g id="iko">
            <path id="webova_analytika" d="M1322.64,1957L1283.36,1957C1280.78,1957 1278.68,1954.9 1278.68,1952.32L1278.68,1947.64L1280.55,1947.64L1280.55,1928.93L1274,1928.93L1274,1907.03L1282.03,1899L1296.45,1899L1296.45,1917.71L1299.76,1917.71C1300.75,1916.69 1301.84,1916.11 1303.06,1915.91C1303.02,1915.58 1303,1915.24 1303,1914.9C1303,1910.26 1306.78,1906.48 1311.42,1906.48C1314.74,1906.48 1317.71,1908.42 1319.07,1911.39C1319.62,1911.24 1320.19,1911.16 1320.77,1911.16C1323.73,1911.16 1326.26,1913.11 1327.06,1915.88C1329.84,1916.22 1332,1918.58 1332,1921.45C1332,1924.06 1330.21,1926.26 1326.39,1927.06L1325.45,1927.06L1325.45,1947.64L1327.32,1947.64L1327.32,1952.32C1327.32,1954.43 1325.92,1956.21 1322.64,1957ZM1325.45,1949.52L1280.55,1949.52L1280.55,1952.32C1280.55,1953.87 1281.81,1955.13 1283.36,1955.13L1322.64,1955.13C1324.3,1955.02 1325.45,1953.8 1325.45,1952.32L1325.45,1949.52ZM1303.93,1953.26L1302.06,1953.26L1302.06,1951.39L1303.93,1951.39L1303.93,1953.26ZM1300.19,1953.26L1298.32,1953.26L1298.32,1951.39L1300.19,1951.39L1300.19,1953.26ZM1307.68,1953.26L1305.81,1953.26L1305.81,1951.39L1307.68,1951.39L1307.68,1953.26ZM1323.58,1927.06L1321.71,1927.06L1321.71,1945.77L1284.29,1945.77L1284.29,1928.93L1282.42,1928.93L1282.42,1947.64L1323.58,1947.64L1323.58,1927.06ZM1298.65,1923.32L1296.45,1923.32L1296.45,1928.93L1286.16,1928.93L1286.16,1943.9L1319.84,1943.9L1319.84,1927.06L1310.87,1927.06L1307.13,1930.81L1298.71,1930.81L1293.37,1936.14L1292.05,1934.82L1297.93,1928.93L1306.36,1928.93L1308.23,1927.06L1303.93,1927.06C1301.89,1926.98 1300.22,1925.99 1298.65,1923.32ZM1291.77,1942.03L1288.03,1942.03L1288.03,1940.16L1291.77,1940.16L1291.77,1942.03ZM1317.97,1942.03L1293.64,1942.03L1293.64,1938.84L1299.81,1932.68L1308.23,1932.68L1311.97,1928.93L1317.97,1928.93L1317.97,1942.03ZM1299.26,1940.16L1299.26,1935.87L1295.52,1939.61L1295.52,1940.16L1299.26,1940.16ZM1316.1,1930.81L1312.74,1930.81L1312.36,1931.19L1312.36,1940.16L1316.1,1940.16L1316.1,1930.81ZM1309,1934.55L1306.74,1934.55L1306.74,1940.16L1310.48,1940.16L1310.48,1933.07L1309,1934.55ZM1304.87,1934.55L1301.13,1934.55L1301.13,1940.16L1304.87,1940.16L1304.87,1934.55ZM1291.77,1938.29L1288.03,1938.29L1288.03,1936.42L1291.77,1936.42L1291.77,1938.29ZM1291.77,1934.55L1288.03,1934.55L1288.03,1932.68L1291.77,1932.68L1291.77,1934.55ZM1294.58,1900.87L1283.36,1900.87L1283.36,1908.36L1275.87,1908.36L1275.87,1927.06L1294.58,1927.06L1294.58,1900.87ZM1322.64,1921.45L1320.77,1921.45C1320.77,1918.79 1322.63,1916.57 1325.12,1915.99C1324.43,1914.23 1322.74,1913.03 1320.77,1913.03C1320.13,1913.03 1319.5,1913.16 1318.9,1913.42L1317.96,1913.84L1317.64,1912.86C1316.75,1910.17 1314.25,1908.36 1311.42,1908.36C1307.81,1908.36 1304.87,1911.29 1304.87,1914.9C1304.87,1915.25 1304.91,1915.6 1304.96,1915.94C1307.1,1916.34 1308.82,1917.95 1309.55,1921.45L1307.68,1921.45C1307.68,1919.39 1306,1917.71 1303.93,1917.71C1301.87,1917.71 1300.19,1919.39 1300.19,1921.45C1300.19,1923.52 1301.87,1925.19 1303.93,1925.19L1310.1,1925.19L1315.71,1919.58L1313.29,1919.58L1313.29,1917.71L1318.9,1917.71L1318.9,1923.32L1317.03,1923.32L1317.03,1920.9L1312.74,1925.19L1326.39,1925.19C1328.56,1925.08 1330.13,1923.45 1330.13,1921.45C1330.13,1919.39 1328.45,1917.71 1326.39,1917.71C1324.79,1917.71 1323.42,1918.72 1322.64,1921.45ZM1292.71,1925.19L1277.74,1925.19L1277.74,1917.71L1292.71,1917.71L1292.71,1925.19ZM1290.84,1919.58L1279.61,1919.58L1279.61,1923.32L1290.84,1923.32L1290.84,1919.58ZM1298.65,1919.58L1296.45,1919.58L1296.45,1921.45L1298.32,1921.45L1298.65,1919.58ZM1292.71,1915.84L1277.74,1915.84L1277.74,1913.97L1292.71,1913.97L1292.71,1915.84ZM1292.71,1912.1L1277.74,1912.1L1277.74,1910.23L1292.71,1910.23L1292.71,1912.1ZM1292.71,1908.36L1285.23,1908.36L1285.23,1902.74L1292.71,1902.74L1292.71,1908.36ZM1281.48,1906.48L1281.48,1902.19L1277.19,1906.48L1281.48,1906.48ZM1290.84,1904.61L1287.1,1904.61L1287.1,1906.48L1290.84,1906.48L1290.84,1904.61Z" style="fill:rgb(252,181,58);"/>
            <clipPath id="_clip1">
                <path id="webova_analytika1" serif:id="webova_analytika" d="M1322.64,1957L1283.36,1957C1280.78,1957 1278.68,1954.9 1278.68,1952.32L1278.68,1947.64L1280.55,1947.64L1280.55,1928.93L1274,1928.93L1274,1907.03L1282.03,1899L1296.45,1899L1296.45,1917.71L1299.76,1917.71C1300.75,1916.69 1301.84,1916.11 1303.06,1915.91C1303.02,1915.58 1303,1915.24 1303,1914.9C1303,1910.26 1306.78,1906.48 1311.42,1906.48C1314.74,1906.48 1317.71,1908.42 1319.07,1911.39C1319.62,1911.24 1320.19,1911.16 1320.77,1911.16C1323.73,1911.16 1326.26,1913.11 1327.06,1915.88C1329.84,1916.22 1332,1918.58 1332,1921.45C1332,1924.06 1330.21,1926.26 1326.39,1927.06L1325.45,1927.06L1325.45,1947.64L1327.32,1947.64L1327.32,1952.32C1327.32,1954.43 1325.92,1956.21 1322.64,1957ZM1325.45,1949.52L1280.55,1949.52L1280.55,1952.32C1280.55,1953.87 1281.81,1955.13 1283.36,1955.13L1322.64,1955.13C1324.3,1955.02 1325.45,1953.8 1325.45,1952.32L1325.45,1949.52ZM1303.93,1953.26L1302.06,1953.26L1302.06,1951.39L1303.93,1951.39L1303.93,1953.26ZM1300.19,1953.26L1298.32,1953.26L1298.32,1951.39L1300.19,1951.39L1300.19,1953.26ZM1307.68,1953.26L1305.81,1953.26L1305.81,1951.39L1307.68,1951.39L1307.68,1953.26ZM1323.58,1927.06L1321.71,1927.06L1321.71,1945.77L1284.29,1945.77L1284.29,1928.93L1282.42,1928.93L1282.42,1947.64L1323.58,1947.64L1323.58,1927.06ZM1298.65,1923.32L1296.45,1923.32L1296.45,1928.93L1286.16,1928.93L1286.16,1943.9L1319.84,1943.9L1319.84,1927.06L1310.87,1927.06L1307.13,1930.81L1298.71,1930.81L1293.37,1936.14L1292.05,1934.82L1297.93,1928.93L1306.36,1928.93L1308.23,1927.06L1303.93,1927.06C1301.89,1926.98 1300.22,1925.99 1298.65,1923.32ZM1291.77,1942.03L1288.03,1942.03L1288.03,1940.16L1291.77,1940.16L1291.77,1942.03ZM1317.97,1942.03L1293.64,1942.03L1293.64,1938.84L1299.81,1932.68L1308.23,1932.68L1311.97,1928.93L1317.97,1928.93L1317.97,1942.03ZM1299.26,1940.16L1299.26,1935.87L1295.52,1939.61L1295.52,1940.16L1299.26,1940.16ZM1316.1,1930.81L1312.74,1930.81L1312.36,1931.19L1312.36,1940.16L1316.1,1940.16L1316.1,1930.81ZM1309,1934.55L1306.74,1934.55L1306.74,1940.16L1310.48,1940.16L1310.48,1933.07L1309,1934.55ZM1304.87,1934.55L1301.13,1934.55L1301.13,1940.16L1304.87,1940.16L1304.87,1934.55ZM1291.77,1938.29L1288.03,1938.29L1288.03,1936.42L1291.77,1936.42L1291.77,1938.29ZM1291.77,1934.55L1288.03,1934.55L1288.03,1932.68L1291.77,1932.68L1291.77,1934.55ZM1294.58,1900.87L1283.36,1900.87L1283.36,1908.36L1275.87,1908.36L1275.87,1927.06L1294.58,1927.06L1294.58,1900.87ZM1322.64,1921.45L1320.77,1921.45C1320.77,1918.79 1322.63,1916.57 1325.12,1915.99C1324.43,1914.23 1322.74,1913.03 1320.77,1913.03C1320.13,1913.03 1319.5,1913.16 1318.9,1913.42L1317.96,1913.84L1317.64,1912.86C1316.75,1910.17 1314.25,1908.36 1311.42,1908.36C1307.81,1908.36 1304.87,1911.29 1304.87,1914.9C1304.87,1915.25 1304.91,1915.6 1304.96,1915.94C1307.1,1916.34 1308.82,1917.95 1309.55,1921.45L1307.68,1921.45C1307.68,1919.39 1306,1917.71 1303.93,1917.71C1301.87,1917.71 1300.19,1919.39 1300.19,1921.45C1300.19,1923.52 1301.87,1925.19 1303.93,1925.19L1310.1,1925.19L1315.71,1919.58L1313.29,1919.58L1313.29,1917.71L1318.9,1917.71L1318.9,1923.32L1317.03,1923.32L1317.03,1920.9L1312.74,1925.19L1326.39,1925.19C1328.56,1925.08 1330.13,1923.45 1330.13,1921.45C1330.13,1919.39 1328.45,1917.71 1326.39,1917.71C1324.79,1917.71 1323.42,1918.72 1322.64,1921.45ZM1292.71,1925.19L1277.74,1925.19L1277.74,1917.71L1292.71,1917.71L1292.71,1925.19ZM1290.84,1919.58L1279.61,1919.58L1279.61,1923.32L1290.84,1923.32L1290.84,1919.58ZM1298.65,1919.58L1296.45,1919.58L1296.45,1921.45L1298.32,1921.45L1298.65,1919.58ZM1292.71,1915.84L1277.74,1915.84L1277.74,1913.97L1292.71,1913.97L1292.71,1915.84ZM1292.71,1912.1L1277.74,1912.1L1277.74,1910.23L1292.71,1910.23L1292.71,1912.1ZM1292.71,1908.36L1285.23,1908.36L1285.23,1902.74L1292.71,1902.74L1292.71,1908.36ZM1281.48,1906.48L1281.48,1902.19L1277.19,1906.48L1281.48,1906.48ZM1290.84,1904.61L1287.1,1904.61L1287.1,1906.48L1290.84,1906.48L1290.84,1904.61Z"/>
            </clipPath>
            <g clip-path="url(#_clip1)">
                <path id="Obdélník-34" serif:id="Obdélník 34" d="M1311.08,1928.48L1319.64,1928.48L1319.64,1942.74L1293.02,1942.74C1293.02,1942.74 1292.36,1940.05 1293.02,1938.93C1295.35,1934.92 1294.59,1931.16 1308.23,1931.33C1309.01,1930.46 1311.08,1928.48 1311.08,1928.48Z" style="fill:rgb(164,0,93);"/>
            </g>
        </g>
    </g>
</svg>
