<?xml version="1.0" encoding="UTF-8" standalone="no"?>
<!DOCTYPE svg PUBLIC "-//W3C//DTD SVG 1.1//EN" "http://www.w3.org/Graphics/SVG/1.1/DTD/svg11.dtd">
<svg width="100%" height="100%" viewBox="0 0 61 56" version="1.1" xmlns="http://www.w3.org/2000/svg" xmlns:xlink="http://www.w3.org/1999/xlink" xml:space="preserve" xmlns:serif="http://www.serif.com/" style="fill-rule:evenodd;clip-rule:evenodd;stroke-linejoin:round;stroke-miterlimit:2;">
    <g transform="matrix(1,0,0,1,-1043,-2129)">
        <g id="iko">
            <path id="Tvar-6" serif:id="Tvar 6" d="M1084.68,2175.7C1085.52,2176.05 1085.7,2176.37 1085.7,2176.74L1085.7,2180.1L1088.99,2176.07L1089.77,2175.7L1098.92,2175.7C1100.72,2175.58 1101.97,2174.23 1101.97,2172.59L1101.97,2153.91C1101.97,2152.26 1100.72,2150.92 1098.92,2150.79L1089.77,2150.79L1089.77,2148.72L1098.92,2148.72C1101.84,2148.84 1104,2151.11 1104,2153.91L1104,2172.59C1104,2175.24 1102.04,2177.43 1098.92,2177.78L1090.24,2177.78L1085.46,2183.63C1085.19,2183.97 1084.74,2184.09 1084.34,2183.94C1083.93,2183.79 1083.67,2183.4 1083.67,2182.97L1083.67,2177.78L1066.38,2177.78C1063.46,2177.66 1061.3,2175.38 1061.3,2172.59L1061.3,2162.21L1063.33,2162.21L1063.33,2172.59C1063.33,2174.09 1064.37,2175.34 1066.38,2175.7L1084.68,2175.7ZM1096.88,2170.51L1068.42,2170.51L1068.42,2168.44L1096.88,2168.44L1096.88,2170.51ZM1059.27,2160.13L1059.27,2166.36C1059.27,2166.81 1058.98,2167.21 1058.56,2167.35C1058.14,2167.49 1057.68,2167.33 1057.42,2166.96L1052.64,2160.13L1048.08,2160.13C1045.16,2160.01 1043,2157.74 1043,2154.95L1043,2134.19C1043,2131.4 1045.16,2129.12 1048.08,2129L1082.65,2129C1085.57,2129.12 1087.73,2131.4 1087.73,2134.19L1087.73,2154.95C1087.73,2157.53 1085.87,2159.68 1082.65,2160.13L1059.27,2160.13ZM1096.88,2164.28L1068.42,2164.28L1068.42,2162.21L1096.88,2162.21L1096.88,2164.28ZM1082.65,2131.07L1048.08,2131.07C1046,2131.52 1045.03,2132.74 1045.03,2134.19L1045.03,2154.95C1045.03,2156.39 1046,2157.61 1048.08,2158.06L1053.17,2158.06L1053.99,2158.49L1057.23,2163.12L1057.23,2159.1C1057.23,2158.6 1057.57,2158.19 1058.25,2158.06L1082.65,2158.06C1084.45,2157.93 1085.7,2156.59 1085.7,2154.95L1085.7,2134.19C1085.7,2132.74 1084.73,2131.52 1082.65,2131.07ZM1096.88,2158.06L1090.78,2158.06L1090.78,2155.98L1096.88,2155.98L1096.88,2158.06ZM1071.38,2133.84C1069.19,2134.26 1067.18,2135.35 1065.62,2136.97L1063.71,2138.92C1062.82,2138.22 1061.62,2138.07 1060.59,2138.55L1055.3,2141C1054.69,2141.28 1054.26,2141.85 1054.14,2142.52C1054.02,2143.19 1054.23,2143.88 1054.7,2144.36L1057.26,2146.97C1057.45,2147.16 1057.71,2147.27 1057.98,2147.27C1058.09,2147.27 1058.2,2147.26 1058.3,2147.22L1059.42,2146.84L1058.73,2148.26C1057.91,2148.25 1057.12,2148.58 1056.54,2149.17C1055.71,2150.02 1053.62,2153.53 1055.11,2155.04C1055.49,2155.41 1055.99,2155.6 1056.51,2155.57C1058.13,2155.38 1059.65,2154.68 1060.86,2153.57C1061.44,2152.98 1061.76,2152.18 1061.75,2151.34L1063.14,2150.63L1062.77,2151.77C1062.65,2152.15 1062.74,2152.56 1063.02,2152.83L1065.57,2155.45C1065.95,2155.84 1066.47,2156.06 1067.01,2156.06C1067.13,2156.06 1067.25,2156.05 1067.37,2156.02C1068.03,2155.9 1068.58,2155.46 1068.86,2154.84L1071.26,2149.45C1071.72,2148.39 1071.58,2147.17 1070.9,2146.26L1072.8,2144.31C1074.39,2142.72 1075.46,2140.67 1075.87,2138.43C1076.21,2136.57 1076,2135.28 1075.23,2134.5C1074.47,2133.72 1073.21,2133.5 1071.38,2133.84ZM1069.41,2148.58L1067.01,2153.98L1064.9,2151.82L1064.96,2151.63C1065.03,2151.65 1065.1,2151.66 1065.17,2151.67C1065.44,2151.67 1065.7,2151.56 1065.89,2151.37L1069.42,2147.76C1069.53,2148.03 1069.53,2148.32 1069.41,2148.58ZM1059.42,2152.11C1058.61,2152.81 1057.64,2153.29 1056.61,2153.51C1056.82,2152.45 1057.29,2151.46 1057.98,2150.64C1058.38,2150.23 1059.02,2150.23 1059.42,2150.64C1059.82,2151.04 1059.82,2151.7 1059.42,2152.11ZM1060.86,2149.17L1060.66,2148.97L1061.14,2147.99L1062.02,2148.89L1061.06,2149.38L1060.86,2149.17ZM1073.87,2138.06C1073.54,2139.88 1072.66,2141.55 1071.37,2142.84L1065.17,2149.17L1063.73,2147.71L1068.04,2143.3L1066.61,2141.84L1062.29,2146.24L1060.86,2144.77L1067.06,2138.45C1068.33,2137.12 1069.96,2136.23 1071.74,2135.89C1073.07,2135.64 1073.66,2135.82 1073.8,2135.96C1073.94,2136.11 1074.11,2136.71 1073.87,2138.06ZM1058.26,2145.05L1056.14,2142.89L1061.43,2140.44C1061.68,2140.32 1061.97,2140.32 1062.23,2140.43L1058.7,2144.03C1058.46,2144.28 1058.36,2144.64 1058.44,2144.99L1058.26,2145.05ZM1071.24,2137.91L1069.09,2137.18L1068.44,2139.15L1070.12,2139.72L1070.68,2141.43L1072.61,2140.77L1071.89,2138.57C1071.79,2138.26 1071.55,2138.01 1071.24,2137.91Z" style="fill:rgb(252,181,58);"/>
            <clipPath id="_clip1">
                <path id="Tvar-61" serif:id="Tvar 6" d="M1084.68,2175.7C1085.52,2176.05 1085.7,2176.37 1085.7,2176.74L1085.7,2180.1L1088.99,2176.07L1089.77,2175.7L1098.92,2175.7C1100.72,2175.58 1101.97,2174.23 1101.97,2172.59L1101.97,2153.91C1101.97,2152.26 1100.72,2150.92 1098.92,2150.79L1089.77,2150.79L1089.77,2148.72L1098.92,2148.72C1101.84,2148.84 1104,2151.11 1104,2153.91L1104,2172.59C1104,2175.24 1102.04,2177.43 1098.92,2177.78L1090.24,2177.78L1085.46,2183.63C1085.19,2183.97 1084.74,2184.09 1084.34,2183.94C1083.93,2183.79 1083.67,2183.4 1083.67,2182.97L1083.67,2177.78L1066.38,2177.78C1063.46,2177.66 1061.3,2175.38 1061.3,2172.59L1061.3,2162.21L1063.33,2162.21L1063.33,2172.59C1063.33,2174.09 1064.37,2175.34 1066.38,2175.7L1084.68,2175.7ZM1096.88,2170.51L1068.42,2170.51L1068.42,2168.44L1096.88,2168.44L1096.88,2170.51ZM1059.27,2160.13L1059.27,2166.36C1059.27,2166.81 1058.98,2167.21 1058.56,2167.35C1058.14,2167.49 1057.68,2167.33 1057.42,2166.96L1052.64,2160.13L1048.08,2160.13C1045.16,2160.01 1043,2157.74 1043,2154.95L1043,2134.19C1043,2131.4 1045.16,2129.12 1048.08,2129L1082.65,2129C1085.57,2129.12 1087.73,2131.4 1087.73,2134.19L1087.73,2154.95C1087.73,2157.53 1085.87,2159.68 1082.65,2160.13L1059.27,2160.13ZM1096.88,2164.28L1068.42,2164.28L1068.42,2162.21L1096.88,2162.21L1096.88,2164.28ZM1082.65,2131.07L1048.08,2131.07C1046,2131.52 1045.03,2132.74 1045.03,2134.19L1045.03,2154.95C1045.03,2156.39 1046,2157.61 1048.08,2158.06L1053.17,2158.06L1053.99,2158.49L1057.23,2163.12L1057.23,2159.1C1057.23,2158.6 1057.57,2158.19 1058.25,2158.06L1082.65,2158.06C1084.45,2157.93 1085.7,2156.59 1085.7,2154.95L1085.7,2134.19C1085.7,2132.74 1084.73,2131.52 1082.65,2131.07ZM1096.88,2158.06L1090.78,2158.06L1090.78,2155.98L1096.88,2155.98L1096.88,2158.06ZM1071.38,2133.84C1069.19,2134.26 1067.18,2135.35 1065.62,2136.97L1063.71,2138.92C1062.82,2138.22 1061.62,2138.07 1060.59,2138.55L1055.3,2141C1054.69,2141.28 1054.26,2141.85 1054.14,2142.52C1054.02,2143.19 1054.23,2143.88 1054.7,2144.36L1057.26,2146.97C1057.45,2147.16 1057.71,2147.27 1057.98,2147.27C1058.09,2147.27 1058.2,2147.26 1058.3,2147.22L1059.42,2146.84L1058.73,2148.26C1057.91,2148.25 1057.12,2148.58 1056.54,2149.17C1055.71,2150.02 1053.62,2153.53 1055.11,2155.04C1055.49,2155.41 1055.99,2155.6 1056.51,2155.57C1058.13,2155.38 1059.65,2154.68 1060.86,2153.57C1061.44,2152.98 1061.76,2152.18 1061.75,2151.34L1063.14,2150.63L1062.77,2151.77C1062.65,2152.15 1062.74,2152.56 1063.02,2152.83L1065.57,2155.45C1065.95,2155.84 1066.47,2156.06 1067.01,2156.06C1067.13,2156.06 1067.25,2156.05 1067.37,2156.02C1068.03,2155.9 1068.58,2155.46 1068.86,2154.84L1071.26,2149.45C1071.72,2148.39 1071.58,2147.17 1070.9,2146.26L1072.8,2144.31C1074.39,2142.72 1075.46,2140.67 1075.87,2138.43C1076.21,2136.57 1076,2135.28 1075.23,2134.5C1074.47,2133.72 1073.21,2133.5 1071.38,2133.84ZM1069.41,2148.58L1067.01,2153.98L1064.9,2151.82L1064.96,2151.63C1065.03,2151.65 1065.1,2151.66 1065.17,2151.67C1065.44,2151.67 1065.7,2151.56 1065.89,2151.37L1069.42,2147.76C1069.53,2148.03 1069.53,2148.32 1069.41,2148.58ZM1059.42,2152.11C1058.61,2152.81 1057.64,2153.29 1056.61,2153.51C1056.82,2152.45 1057.29,2151.46 1057.98,2150.64C1058.38,2150.23 1059.02,2150.23 1059.42,2150.64C1059.82,2151.04 1059.82,2151.7 1059.42,2152.11ZM1060.86,2149.17L1060.66,2148.97L1061.14,2147.99L1062.02,2148.89L1061.06,2149.38L1060.86,2149.17ZM1073.87,2138.06C1073.54,2139.88 1072.66,2141.55 1071.37,2142.84L1065.17,2149.17L1063.73,2147.71L1068.04,2143.3L1066.61,2141.84L1062.29,2146.24L1060.86,2144.77L1067.06,2138.45C1068.33,2137.12 1069.96,2136.23 1071.74,2135.89C1073.07,2135.64 1073.66,2135.82 1073.8,2135.96C1073.94,2136.11 1074.11,2136.71 1073.87,2138.06ZM1058.26,2145.05L1056.14,2142.89L1061.43,2140.44C1061.68,2140.32 1061.97,2140.32 1062.23,2140.43L1058.7,2144.03C1058.46,2144.28 1058.36,2144.64 1058.44,2144.99L1058.26,2145.05ZM1071.24,2137.91L1069.09,2137.18L1068.44,2139.15L1070.12,2139.72L1070.68,2141.43L1072.61,2140.77L1071.89,2138.57C1071.79,2138.26 1071.55,2138.01 1071.24,2137.91Z"/>
            </clipPath>
            <g clip-path="url(#_clip1)">
                <rect id="Obdélník-37" serif:id="Obdélník 37" x="1051.19" y="2132.66" width="27.312" height="23.844" style="fill:rgb(164,0,93);"/>
            </g>
        </g>
    </g>
</svg>
