<?xml version="1.0" encoding="UTF-8" standalone="no"?>
<!DOCTYPE svg PUBLIC "-//W3C//DTD SVG 1.1//EN" "http://www.w3.org/Graphics/SVG/1.1/DTD/svg11.dtd">
<svg width="100%" height="100%" viewBox="0 0 55 56" version="1.1" xmlns="http://www.w3.org/2000/svg" xmlns:xlink="http://www.w3.org/1999/xlink" xml:space="preserve" xmlns:serif="http://www.serif.com/" style="fill-rule:evenodd;clip-rule:evenodd;stroke-linejoin:round;stroke-miterlimit:2;">
    <g transform="matrix(1,0,0,1,-822,-1899)">
        <g id="iko">
            <path id="Tvar-2" serif:id="Tvar 2" d="M850.417,1955L826.583,1955C824.052,1955 822,1952.94 822,1950.41L822,1948.57C822,1948.14 822.303,1947.77 822.917,1947.66L824.75,1947.66L824.75,1928.38C824.75,1927.94 825.053,1927.58 825.667,1927.46L834.21,1927.46C834.824,1927.58 835.127,1927.94 835.127,1928.38L834.21,1929.3L826.583,1929.3L826.583,1947.66L850.417,1947.66L850.417,1938.66C850.417,1938.15 850.827,1937.74 851.333,1937.74C851.839,1937.74 852.25,1938.15 852.25,1938.66L852.25,1947.66L854.083,1947.66L855,1948.57L855,1950.41C855,1952.24 853.929,1953.82 850.417,1955ZM853.167,1949.49L823.833,1949.49L823.833,1950.41C823.833,1951.93 825.065,1953.16 826.583,1953.16L828.417,1953.16L828.417,1952.25C828.417,1951.74 828.827,1951.33 829.333,1951.33C829.84,1951.33 830.25,1951.74 830.25,1952.25L830.25,1953.16L846.75,1953.16L846.75,1952.25C846.75,1951.74 847.16,1951.33 847.667,1951.33C848.173,1951.33 848.583,1951.74 848.583,1952.25L848.583,1953.16L850.417,1953.16C852.043,1953.05 853.167,1951.86 853.167,1950.41L853.167,1949.49ZM841.057,1937.86L855.724,1932.35L851.682,1925.35C851.429,1924.91 851.58,1924.34 852.021,1924.09C852.461,1923.84 853.023,1923.99 853.277,1924.43L857.842,1932.36C857.973,1932.59 857.996,1932.87 857.906,1933.12C857.815,1933.38 857.617,1933.58 857.365,1933.67L843.615,1938.84L845.283,1941.75C845.284,1941.75 845.284,1941.76 845.285,1941.76C846.043,1943.07 845.591,1944.76 844.275,1945.52C842.961,1946.27 841.284,1945.82 840.526,1944.51L838.692,1941.32L837.895,1941.78C837.339,1942.11 836.706,1942.28 836.062,1942.28C835.736,1942.28 835.412,1942.24 835.099,1942.15C834.489,1941.98 833.935,1941.65 833.495,1941.19L832.578,1941.72C832.159,1941.95 831.686,1942.08 831.203,1942.08C830.962,1942.08 830.722,1942.05 830.488,1941.99C829.781,1941.8 829.178,1941.34 828.813,1940.7C828.057,1939.38 828.511,1937.7 829.828,1936.94L830.745,1936.42C830.297,1934.81 830.99,1933.1 832.432,1932.26L836.337,1930L849.17,1919.41C849.38,1919.24 849.655,1919.16 849.922,1919.22C850.187,1919.26 850.418,1919.42 850.554,1919.66L851.471,1921.24C851.724,1921.68 851.572,1922.25 851.132,1922.5C850.691,1922.76 850.129,1922.6 849.876,1922.16L849.5,1921.51L837.996,1931.01L840.361,1935.11C840.442,1935.25 840.484,1935.41 840.484,1935.57C840.482,1936.08 840.07,1936.49 839.563,1936.48C839.235,1936.49 838.93,1936.31 838.766,1936.02L836.474,1932.05L833.302,1933.88C832.469,1934.38 832.167,1935.45 832.615,1936.31L834.448,1939.49C834.691,1939.9 835.09,1940.21 835.557,1940.34C836.028,1940.47 836.529,1940.4 836.951,1940.15L838.537,1939.24L840.92,1937.86L841.057,1937.86ZM874.25,1944.9L863.25,1944.9C861.731,1944.9 860.5,1943.67 860.5,1942.15L860.5,1931.13C860.5,1929.68 861.624,1928.49 863.25,1928.38L874.25,1928.38C875.876,1928.49 877,1929.68 877,1931.13L877,1936.64C877,1937.15 876.59,1937.56 876.083,1937.56C875.577,1937.56 875.167,1937.15 875.167,1936.64L875.167,1931.13L874.25,1930.21L863.25,1930.21L862.333,1931.13L862.333,1942.15C862.333,1942.65 862.744,1943.07 863.25,1943.07L874.25,1943.07C874.863,1942.95 875.167,1942.58 875.167,1942.15L875.167,1940.31C875.167,1939.8 875.577,1939.39 876.083,1939.39C876.59,1939.39 877,1939.8 877,1940.31L877,1942.15C877,1943.16 876.456,1944.04 874.25,1944.9ZM843.688,1942.69C843.81,1942.9 843.843,1943.15 843.78,1943.39C843.715,1943.62 843.56,1943.82 843.349,1943.94C842.913,1944.19 842.357,1944.04 842.102,1943.61L840.269,1940.42L841.791,1939.55L841.864,1939.55L843.688,1942.69ZM865.083,1936.64C865.083,1938.67 866.725,1940.31 868.75,1940.31C870.775,1940.31 872.417,1938.67 872.417,1936.64C872.417,1934.61 870.775,1932.97 868.75,1932.97C866.725,1932.97 865.083,1934.61 865.083,1936.64ZM831.625,1940.12C831.414,1940.24 831.163,1940.27 830.928,1940.21C830.693,1940.15 830.492,1940 830.369,1939.79C830.247,1939.58 830.214,1939.33 830.277,1939.09C830.341,1938.85 830.496,1938.65 830.708,1938.53L831.506,1938.07L832.422,1939.66L831.625,1940.12ZM870.583,1936.64C870.583,1937.65 869.762,1938.48 868.75,1938.48C867.737,1938.48 866.917,1937.65 866.917,1936.64C866.917,1935.62 867.737,1934.8 868.75,1934.8C869.762,1934.8 870.583,1935.62 870.583,1936.64ZM865.083,1924.52C864.994,1924.02 864.518,1923.69 864.019,1923.78C864.007,1923.78 863.995,1923.78 863.983,1923.79L859.4,1924.7C858.894,1924.76 858.524,1925.21 858.575,1925.72C858.626,1926.22 859.077,1926.59 859.583,1926.54L859.767,1926.54L864.35,1925.62C864.848,1925.53 865.18,1925.06 865.09,1924.56C865.088,1924.55 865.086,1924.53 865.083,1924.52ZM833.917,1924.7L822.917,1924.7C822.41,1924.7 822,1924.29 822,1923.79L822,1909.1C822,1908.66 822.303,1908.3 822.917,1908.18L833.917,1908.18C834.53,1908.3 834.833,1908.66 834.833,1909.1L834.833,1923.79C834.833,1924.06 834.711,1924.31 833.917,1924.7ZM856.1,1922.5C856.273,1922.73 856.545,1922.87 856.833,1922.87C857.032,1922.87 857.225,1922.8 857.383,1922.68L861.05,1919.93C861.455,1919.63 861.537,1919.05 861.233,1918.65C860.93,1918.24 860.355,1918.16 859.95,1918.46L856.283,1921.22C855.878,1921.52 855.796,1922.1 856.1,1922.5L856.1,1922.5ZM833,1910.02L823.833,1910.02L823.833,1922.87L833,1922.87L833,1910.02ZM830.25,1921.03L826.583,1921.03C826.077,1921.03 825.667,1920.62 825.667,1920.12C825.667,1919.68 825.97,1919.31 826.583,1919.2L830.25,1919.2C830.863,1919.31 831.167,1919.68 831.167,1920.12C831.167,1920.55 830.863,1920.91 830.25,1921.03ZM854.083,1919.2C854.372,1919.2 854.644,1919.06 854.817,1918.83L857.567,1915.16C857.87,1914.75 857.787,1914.18 857.382,1913.87C856.977,1913.57 856.404,1913.65 856.1,1914.06L853.35,1917.73C853.046,1918.13 853.128,1918.71 853.533,1919.01C853.692,1919.13 853.885,1919.2 854.083,1919.2ZM830.25,1917.36L826.583,1917.36C826.077,1917.36 825.667,1916.95 825.667,1916.44C825.667,1916.01 825.97,1915.64 826.583,1915.52L830.25,1915.52C830.863,1915.64 831.167,1916.01 831.167,1916.44C831.167,1916.82 830.943,1917.14 830.25,1917.36ZM863.25,1901.75L862.333,1902.67L862.333,1904.51C862.333,1905.02 861.923,1905.43 861.417,1905.43C860.91,1905.43 860.5,1905.02 860.5,1904.51L860.5,1902.67C860.5,1901.22 861.624,1900.03 863.25,1899.92L874.25,1899.92C875.876,1900.03 877,1901.22 877,1902.67L877,1913.69C877,1914.63 876.525,1915.47 874.25,1916.44L863.25,1916.44C861.731,1916.44 860.5,1915.21 860.5,1913.69L860.5,1908.18C860.5,1907.67 860.91,1907.26 861.417,1907.26C861.923,1907.26 862.333,1907.67 862.333,1908.18L862.333,1913.69C862.333,1914.19 862.744,1914.61 863.25,1914.61L874.25,1914.61C874.863,1914.49 875.167,1914.12 875.167,1913.69L875.167,1902.67L874.25,1901.75L863.25,1901.75ZM844.917,1915.52C849.473,1915.52 853.167,1911.83 853.167,1907.26C853.167,1902.7 849.473,1899 844.917,1899C840.36,1899 836.667,1902.7 836.667,1907.26C836.667,1911.83 840.36,1915.52 844.917,1915.52ZM844.917,1900.84C848.46,1900.84 851.333,1903.71 851.333,1907.26C851.333,1910.81 848.46,1913.69 844.917,1913.69C841.373,1913.69 838.5,1910.81 838.5,1907.26C838.5,1903.71 841.373,1900.84 844.917,1900.84ZM830.25,1913.69L828.417,1913.69C827.91,1913.69 827.5,1913.28 827.5,1912.77C827.5,1912.34 827.803,1911.97 828.417,1911.85L830.25,1911.85C830.863,1911.97 831.167,1912.34 831.167,1912.77C831.167,1913.09 831.001,1913.38 830.25,1913.69ZM868.75,1909.1L868.75,1911.85C868.75,1912.36 868.34,1912.77 867.833,1912.77C867.327,1912.77 866.917,1912.36 866.917,1911.85L866.917,1909.1L866,1909.1C865.386,1908.98 865.083,1908.62 865.083,1908.18C865.083,1907.75 865.386,1907.38 866,1907.26L866.917,1907.26L866.917,1906.34C866.917,1904.89 868.041,1903.7 869.667,1903.59L871.5,1903.59C872.113,1903.71 872.417,1904.07 872.417,1904.51L871.5,1905.43L869.667,1905.43L868.75,1906.34L868.75,1907.26L869.667,1907.26L870.583,1908.18L869.667,1909.1L868.75,1909.1ZM842.597,1910.8C842.743,1910.89 842.912,1910.93 843.083,1910.93C843.227,1910.93 843.368,1910.9 843.496,1910.83L848.996,1908.08C849.446,1907.85 849.624,1907.3 849.394,1906.84C849.306,1906.67 849.167,1906.53 848.996,1906.44L843.496,1903.69C843.044,1903.46 842.493,1903.64 842.265,1904.1C842.201,1904.23 842.167,1904.37 842.167,1904.51L842.167,1910.02C842.166,1910.33 842.329,1910.63 842.597,1910.8ZM844,1906L846.53,1907.26L844,1908.53L844,1906Z" style="fill:rgb(252,181,58);"/>
            <clipPath id="_clip1">
                <path id="Tvar-21" serif:id="Tvar 2" d="M850.417,1955L826.583,1955C824.052,1955 822,1952.94 822,1950.41L822,1948.57C822,1948.14 822.303,1947.77 822.917,1947.66L824.75,1947.66L824.75,1928.38C824.75,1927.94 825.053,1927.58 825.667,1927.46L834.21,1927.46C834.824,1927.58 835.127,1927.94 835.127,1928.38L834.21,1929.3L826.583,1929.3L826.583,1947.66L850.417,1947.66L850.417,1938.66C850.417,1938.15 850.827,1937.74 851.333,1937.74C851.839,1937.74 852.25,1938.15 852.25,1938.66L852.25,1947.66L854.083,1947.66L855,1948.57L855,1950.41C855,1952.24 853.929,1953.82 850.417,1955ZM853.167,1949.49L823.833,1949.49L823.833,1950.41C823.833,1951.93 825.065,1953.16 826.583,1953.16L828.417,1953.16L828.417,1952.25C828.417,1951.74 828.827,1951.33 829.333,1951.33C829.84,1951.33 830.25,1951.74 830.25,1952.25L830.25,1953.16L846.75,1953.16L846.75,1952.25C846.75,1951.74 847.16,1951.33 847.667,1951.33C848.173,1951.33 848.583,1951.74 848.583,1952.25L848.583,1953.16L850.417,1953.16C852.043,1953.05 853.167,1951.86 853.167,1950.41L853.167,1949.49ZM841.057,1937.86L855.724,1932.35L851.682,1925.35C851.429,1924.91 851.58,1924.34 852.021,1924.09C852.461,1923.84 853.023,1923.99 853.277,1924.43L857.842,1932.36C857.973,1932.59 857.996,1932.87 857.906,1933.12C857.815,1933.38 857.617,1933.58 857.365,1933.67L843.615,1938.84L845.283,1941.75C845.284,1941.75 845.284,1941.76 845.285,1941.76C846.043,1943.07 845.591,1944.76 844.275,1945.52C842.961,1946.27 841.284,1945.82 840.526,1944.51L838.692,1941.32L837.895,1941.78C837.339,1942.11 836.706,1942.28 836.062,1942.28C835.736,1942.28 835.412,1942.24 835.099,1942.15C834.489,1941.98 833.935,1941.65 833.495,1941.19L832.578,1941.72C832.159,1941.95 831.686,1942.08 831.203,1942.08C830.962,1942.08 830.722,1942.05 830.488,1941.99C829.781,1941.8 829.178,1941.34 828.813,1940.7C828.057,1939.38 828.511,1937.7 829.828,1936.94L830.745,1936.42C830.297,1934.81 830.99,1933.1 832.432,1932.26L836.337,1930L849.17,1919.41C849.38,1919.24 849.655,1919.16 849.922,1919.22C850.187,1919.26 850.418,1919.42 850.554,1919.66L851.471,1921.24C851.724,1921.68 851.572,1922.25 851.132,1922.5C850.691,1922.76 850.129,1922.6 849.876,1922.16L849.5,1921.51L837.996,1931.01L840.361,1935.11C840.442,1935.25 840.484,1935.41 840.484,1935.57C840.482,1936.08 840.07,1936.49 839.563,1936.48C839.235,1936.49 838.93,1936.31 838.766,1936.02L836.474,1932.05L833.302,1933.88C832.469,1934.38 832.167,1935.45 832.615,1936.31L834.448,1939.49C834.691,1939.9 835.09,1940.21 835.557,1940.34C836.028,1940.47 836.529,1940.4 836.951,1940.15L838.537,1939.24L840.92,1937.86L841.057,1937.86ZM874.25,1944.9L863.25,1944.9C861.731,1944.9 860.5,1943.67 860.5,1942.15L860.5,1931.13C860.5,1929.68 861.624,1928.49 863.25,1928.38L874.25,1928.38C875.876,1928.49 877,1929.68 877,1931.13L877,1936.64C877,1937.15 876.59,1937.56 876.083,1937.56C875.577,1937.56 875.167,1937.15 875.167,1936.64L875.167,1931.13L874.25,1930.21L863.25,1930.21L862.333,1931.13L862.333,1942.15C862.333,1942.65 862.744,1943.07 863.25,1943.07L874.25,1943.07C874.863,1942.95 875.167,1942.58 875.167,1942.15L875.167,1940.31C875.167,1939.8 875.577,1939.39 876.083,1939.39C876.59,1939.39 877,1939.8 877,1940.31L877,1942.15C877,1943.16 876.456,1944.04 874.25,1944.9ZM843.688,1942.69C843.81,1942.9 843.843,1943.15 843.78,1943.39C843.715,1943.62 843.56,1943.82 843.349,1943.94C842.913,1944.19 842.357,1944.04 842.102,1943.61L840.269,1940.42L841.791,1939.55L841.864,1939.55L843.688,1942.69ZM865.083,1936.64C865.083,1938.67 866.725,1940.31 868.75,1940.31C870.775,1940.31 872.417,1938.67 872.417,1936.64C872.417,1934.61 870.775,1932.97 868.75,1932.97C866.725,1932.97 865.083,1934.61 865.083,1936.64ZM831.625,1940.12C831.414,1940.24 831.163,1940.27 830.928,1940.21C830.693,1940.15 830.492,1940 830.369,1939.79C830.247,1939.58 830.214,1939.33 830.277,1939.09C830.341,1938.85 830.496,1938.65 830.708,1938.53L831.506,1938.07L832.422,1939.66L831.625,1940.12ZM870.583,1936.64C870.583,1937.65 869.762,1938.48 868.75,1938.48C867.737,1938.48 866.917,1937.65 866.917,1936.64C866.917,1935.62 867.737,1934.8 868.75,1934.8C869.762,1934.8 870.583,1935.62 870.583,1936.64ZM865.083,1924.52C864.994,1924.02 864.518,1923.69 864.019,1923.78C864.007,1923.78 863.995,1923.78 863.983,1923.79L859.4,1924.7C858.894,1924.76 858.524,1925.21 858.575,1925.72C858.626,1926.22 859.077,1926.59 859.583,1926.54L859.767,1926.54L864.35,1925.62C864.848,1925.53 865.18,1925.06 865.09,1924.56C865.088,1924.55 865.086,1924.53 865.083,1924.52ZM833.917,1924.7L822.917,1924.7C822.41,1924.7 822,1924.29 822,1923.79L822,1909.1C822,1908.66 822.303,1908.3 822.917,1908.18L833.917,1908.18C834.53,1908.3 834.833,1908.66 834.833,1909.1L834.833,1923.79C834.833,1924.06 834.711,1924.31 833.917,1924.7ZM856.1,1922.5C856.273,1922.73 856.545,1922.87 856.833,1922.87C857.032,1922.87 857.225,1922.8 857.383,1922.68L861.05,1919.93C861.455,1919.63 861.537,1919.05 861.233,1918.65C860.93,1918.24 860.355,1918.16 859.95,1918.46L856.283,1921.22C855.878,1921.52 855.796,1922.1 856.1,1922.5L856.1,1922.5ZM833,1910.02L823.833,1910.02L823.833,1922.87L833,1922.87L833,1910.02ZM830.25,1921.03L826.583,1921.03C826.077,1921.03 825.667,1920.62 825.667,1920.12C825.667,1919.68 825.97,1919.31 826.583,1919.2L830.25,1919.2C830.863,1919.31 831.167,1919.68 831.167,1920.12C831.167,1920.55 830.863,1920.91 830.25,1921.03ZM854.083,1919.2C854.372,1919.2 854.644,1919.06 854.817,1918.83L857.567,1915.16C857.87,1914.75 857.787,1914.18 857.382,1913.87C856.977,1913.57 856.404,1913.65 856.1,1914.06L853.35,1917.73C853.046,1918.13 853.128,1918.71 853.533,1919.01C853.692,1919.13 853.885,1919.2 854.083,1919.2ZM830.25,1917.36L826.583,1917.36C826.077,1917.36 825.667,1916.95 825.667,1916.44C825.667,1916.01 825.97,1915.64 826.583,1915.52L830.25,1915.52C830.863,1915.64 831.167,1916.01 831.167,1916.44C831.167,1916.82 830.943,1917.14 830.25,1917.36ZM863.25,1901.75L862.333,1902.67L862.333,1904.51C862.333,1905.02 861.923,1905.43 861.417,1905.43C860.91,1905.43 860.5,1905.02 860.5,1904.51L860.5,1902.67C860.5,1901.22 861.624,1900.03 863.25,1899.92L874.25,1899.92C875.876,1900.03 877,1901.22 877,1902.67L877,1913.69C877,1914.63 876.525,1915.47 874.25,1916.44L863.25,1916.44C861.731,1916.44 860.5,1915.21 860.5,1913.69L860.5,1908.18C860.5,1907.67 860.91,1907.26 861.417,1907.26C861.923,1907.26 862.333,1907.67 862.333,1908.18L862.333,1913.69C862.333,1914.19 862.744,1914.61 863.25,1914.61L874.25,1914.61C874.863,1914.49 875.167,1914.12 875.167,1913.69L875.167,1902.67L874.25,1901.75L863.25,1901.75ZM844.917,1915.52C849.473,1915.52 853.167,1911.83 853.167,1907.26C853.167,1902.7 849.473,1899 844.917,1899C840.36,1899 836.667,1902.7 836.667,1907.26C836.667,1911.83 840.36,1915.52 844.917,1915.52ZM844.917,1900.84C848.46,1900.84 851.333,1903.71 851.333,1907.26C851.333,1910.81 848.46,1913.69 844.917,1913.69C841.373,1913.69 838.5,1910.81 838.5,1907.26C838.5,1903.71 841.373,1900.84 844.917,1900.84ZM830.25,1913.69L828.417,1913.69C827.91,1913.69 827.5,1913.28 827.5,1912.77C827.5,1912.34 827.803,1911.97 828.417,1911.85L830.25,1911.85C830.863,1911.97 831.167,1912.34 831.167,1912.77C831.167,1913.09 831.001,1913.38 830.25,1913.69ZM868.75,1909.1L868.75,1911.85C868.75,1912.36 868.34,1912.77 867.833,1912.77C867.327,1912.77 866.917,1912.36 866.917,1911.85L866.917,1909.1L866,1909.1C865.386,1908.98 865.083,1908.62 865.083,1908.18C865.083,1907.75 865.386,1907.38 866,1907.26L866.917,1907.26L866.917,1906.34C866.917,1904.89 868.041,1903.7 869.667,1903.59L871.5,1903.59C872.113,1903.71 872.417,1904.07 872.417,1904.51L871.5,1905.43L869.667,1905.43L868.75,1906.34L868.75,1907.26L869.667,1907.26L870.583,1908.18L869.667,1909.1L868.75,1909.1ZM842.597,1910.8C842.743,1910.89 842.912,1910.93 843.083,1910.93C843.227,1910.93 843.368,1910.9 843.496,1910.83L848.996,1908.08C849.446,1907.85 849.624,1907.3 849.394,1906.84C849.306,1906.67 849.167,1906.53 848.996,1906.44L843.496,1903.69C843.044,1903.46 842.493,1903.64 842.265,1904.1C842.201,1904.23 842.167,1904.37 842.167,1904.51L842.167,1910.02C842.166,1910.33 842.329,1910.63 842.597,1910.8ZM844,1906L846.53,1907.26L844,1908.53L844,1906Z"/>
            </clipPath>
            <g clip-path="url(#_clip1)">
                <path id="Obdélník-35" serif:id="Obdélník 35" d="M828,1935L856,1911L867,1925C867,1925 863.483,1926.71 858.562,1929.11C856.04,1930.34 860.289,1935.64 857,1936C841.2,1937.71 850.758,1943.17 847,1945C841.389,1947.73 828,1944 828,1944L828,1935Z" style="fill:rgb(164,0,93);"/>
            </g>
        </g>
    </g>
</svg>
